<svg width="200" height="200" viewBox="0 0 200 200" xmlns="http://www.w3.org/2000/svg">
  <g stroke="none" stroke-width="1" fill="none" fill-rule="evenodd">
    <g transform="translate(30, 16)">
      <path d="M109,55.550381 C109,52.7092133 107.626733,50.2549035 105.617988,49.0300445 C105.370163,48.8796635 105.112107,48.7533894 104.846093,48.6408906 C103.559223,26.4832261 88.6886013,9 70.5189541,9 C52.439115,9 37.6264702,26.3121821 36.2145512,48.3137259 C35.3403437,48.4893617 34.5275239,48.87048 33.8158804,49.4237902 C32.1220323,50.7370411 31,52.9858684 31,55.550381 C31,59.6141118 33.8033755,62.9098664 37.2615539,62.9098664 C37.2695116,62.9098664 37.2763325,62.9075705 37.2842901,62.9075705 C38.2801364,67.4924691 39.8693979,71.7743097 41.9508985,75.613043 C45.1351056,82.1196042 49.6255083,87.4196734 54.933278,90.8749926 C55.0628744,94.6345176 55.0719689,101.423474 53.7407634,105.054429 C50.3758034,111.955883 48.1408334,112.923602 48.1408334,112.923602 C48.1408334,112.923602 50.2211971,124.419139 69.5196974,124.973597 L69.5219711,125 C69.7697958,125 70.002842,124.989668 70.2472564,124.986225 C70.4905339,124.989668 70.7224433,125 70.9714048,125 L70.9736785,124.973597 C90.2721787,124.419139 92.3514057,112.923602 92.3514057,112.923602 C92.3514057,112.923602 89.8151808,111.826165 86.0773469,103.621791 L86.1978488,103.621791 C85.2406541,99.5993864 85.3270517,93.4670559 85.4555113,90.2838001 C94.3897075,84.9320732 101.175331,74.9254231 103.779765,62.7985156 C106.741157,62.2165067 109,59.1974072 109,55.550381" fill="#22D3EE"/>
      <path d="M121.978695,118.099045 C107.518285,115.995808 100.398906,116.206474 100.398906,116.206474 L91.6665233,112 C91.6665233,112 86.9142474,121.539153 71.5033816,121.539153 C58.0488393,121.539153 49.388735,115.844357 48.0009981,112 L39.6010945,116.206474 C39.6010945,116.206474 32.4817154,115.995808 18.0201002,118.099045 C3.55848492,120.201144 0,131.979042 0,146.28037 L0,158.478461 L0,159 L63.185393,159 L64.9007899,159 L75.0992101,159 L77.3747612,159 L140,159 L140,158.478461 L140,146.28037 C140,131.979042 136.439106,120.201144 121.978695,118.099045" fill="#2A2B30"/>
      <path d="M75.074543,0 L64.9265967,0 C47.2941983,0 33,16.1253483 33,36.0182267 C33,40.8923759 33.8627578,45.5392627 35.4184571,49.7807318 L37.651142,49.5763099 C37.651142,49.5763099 39.7652975,43.6446485 42.302284,38.5592253 C42.302284,38.5592253 39.3413267,17.3735782 68.9429223,17.3735782 C83.3203191,17.3735782 98.967349,18.6446485 98.1216868,38.5592253 C98.1216868,38.5592253 102.772829,45.763099 102.349998,50 L104.667021,49.5363391 C106.169154,45.3599653 107,40.7998721 107,36.0182267 C107,16.1253483 92.7069414,0 75.074543,0" fill="#2A2B30"/>
    </g>
  </g>
</svg>
