<svg width="200" height="200" viewBox="0 0 200 200" xmlns="http://www.w3.org/2000/svg">
  <g stroke="none" stroke-width="1" fill="none" fill-rule="evenodd">
    <polygon fill="#FFFFFF" points="19 19 183 19 183 181 19 181"/>
    <polygon stroke="#2A2B30" stroke-width="4" points="18 19 182 19 182 181 18 181"/>
    <polygon fill="#2A2B30" points="19 19 182 19 182 52.7241379 19 52.7241379"/>
    <path d="M41.2413793,34.6206897 C41.2413793,37.7251839 38.7251839,40.2413793 35.6206897,40.2413793 C32.5161954,40.2413793 30,37.7251839 30,34.6206897 C30,31.5161954 32.5161954,29 35.6206897,29 C38.7251839,29 41.2413793,31.5161954 41.2413793,34.6206897 Z" fill="#FFFFFF"/>
    <path d="M58.2413793,34.6206897 C58.2413793,37.7251839 55.7251839,40.2413793 52.6206897,40.2413793 C49.5161954,40.2413793 47,37.7251839 47,34.6206897 C47,31.5161954 49.5161954,29 52.6206897,29 C55.7251839,29 58.2413793,31.5161954 58.2413793,34.6206897 Z" fill="#FFFFFF"/>
    <path d="M75.2413793,34.6206897 C75.2413793,37.7251839 72.7251839,40.2413793 69.6206897,40.2413793 C66.5161954,40.2413793 64,37.7251839 64,34.6206897 C64,31.5161954 66.5161954,29 69.6206897,29 C72.7251839,29 75.2413793,31.5161954 75.2413793,34.6206897 Z" fill="#FFFFFF"/>
    <polygon fill="#F97316" points="50 86 152 86 152 112 50 112"/>
    <polygon fill="#F97316" points="50 118 152 118 152 130.280822 50 130.280822"/>
    <polygon fill="#F97316" points="50 136 152 136 152 148.280822 50 148.280822"/>
    <path d="M147,190.00154 C147,194.418968 143.409288,198 139,198 C134.581722,198 131,194.415065 131,190.00154 L131,158 L163,158 L163,190.00154 C163,194.418968 159.409288,198 155,198 C150.581722,198 147,194.415065 147,190.00154 Z" fill="#2A2B30"/>
    <ellipse fill="#2A2B30" cx="147" cy="84.5" rx="16" ry="16.5"/>
    <path d="M176,134 C176,117.431458 162.792411,104 146.500023,104 C130.207636,104 117.000047,117.431458 117.000047,134 C116.939549,134 175.713355,134 176,134 Z" fill="#6366F1"/>
    <path d="M117,132 L176,132 L176,145 C176,152.179702 170.181384,158 162.997432,158 L130.002568,158 C122.821448,158 117,152.18128 117,145 L117,132 Z" fill="#6366F1"/>
  </g>
</svg>
