<svg width="200" height="200" viewBox="0 0 200 200" xmlns="http://www.w3.org/2000/svg">
  <g stroke="none" stroke-width="1" fill="none" fill-rule="evenodd">
    <path d="M151.507432,142.010844 C163.98455,134.121525 172,121.861688 172,108.093881 C172,84.2937878 148.047234,65 118.5,65 C88.9527659,65 65,84.2937878 65,108.093881 C65,131.893975 88.9527659,151.187762 118.5,151.187762 C126.148307,151.187762 133.421765,149.895013 140.001971,147.565985 L151.507432,159 L151.507432,142.010844 Z" fill="#2A2B30"/>
    <path d="M61.5771727,125.504941 C67.7347401,127.505997 74.4585063,128.607083 81.5,128.607083 C111.047234,128.607083 135,109.219427 135,85.3035415 C135,61.3876559 111.047234,42 81.5,42 C51.9527659,42 28,61.3876559 28,85.3035415 C28,97.7580072 34.4958044,108.984452 44.8947368,116.884333 L44.8947368,137 L61.5771727,125.504941 Z" fill="#6366F1"/>
    <g transform="translate(123.222222, 120)">
      <path d="M59.0959866,50.6599501 C53.3762752,53.5241064 43.5298572,55.415732 32.3341916,55.415732 C21.1368094,55.415732 11.2886749,53.5241064 5.56896351,50.6599501 C2.2645084,49.0016606 0.333333333,47.0209754 0.333333333,44.8888889 L0.333333333,56.4292301 C0.333333333,62.2430399 14.6583608,66.9578544 32.3341916,66.9578544 C50.0065892,66.9578544 64.3333333,62.2430399 64.3333333,56.4292301 L64.3333333,44.8888889 C64.3333333,47.0209754 62.4021583,49.0016606 59.0959866,50.6599501" fill="#2A2B30"/>
      <path d="M0.333333333,45.5929829 C0.333333333,47.715961 2.2644566,49.6881846 5.57053964,51.3393898 C11.2900976,54.1913103 21.137968,56.0766284 32.3350499,56.0766284 C43.5286986,56.0766284 53.376569,54.1913103 59.096127,51.3393898 C62.4022101,49.6881846 64.3333333,47.715961 64.3333333,45.5929829 C64.3333333,39.8040101 50.0069735,35.1111111 32.3350499,35.1111111 C14.6596932,35.1111111 0.333333333,39.8040101 0.333333333,45.5929829 Z" fill="#6366F1"/>
      <path d="M59.0959866,33.7710612 C53.3762752,36.6352175 43.5298572,38.5268431 32.3341916,38.5268431 C21.1368094,38.5268431 11.2886749,36.6352175 5.56896351,33.7710612 C2.2645084,32.1127717 0.333333333,30.1320865 0.333333333,28 L0.333333333,39.5403412 C0.333333333,45.354151 14.6583608,50.0689655 32.3341916,50.0689655 C50.0065892,50.0689655 64.3333333,45.354151 64.3333333,39.5403412 L64.3333333,28 C64.3333333,30.1320865 62.4021583,32.1127717 59.0959866,33.7710612" fill="#2A2B30"/>
      <path d="M0.333333333,28.7040941 C0.333333333,30.8270722 2.2644566,32.7992958 5.57053964,34.4505009 C11.2900976,37.3024214 21.137968,39.1877395 32.3350499,39.1877395 C43.5286986,39.1877395 53.376569,37.3024214 59.096127,34.4505009 C62.4022101,32.7992958 64.3333333,30.8270722 64.3333333,28.7040941 C64.3333333,22.9151212 50.0069735,18.2222222 32.3350499,18.2222222 C14.6596932,18.2222222 0.333333333,22.9151212 0.333333333,28.7040941 Z" fill="#6366F1"/>
      <path d="M58.7003763,15.9433075 C53.0191719,18.7826609 43.2390434,20.6579055 32.1187509,20.6579055 C20.9967533,20.6579055 11.2149198,18.7826609 5.53371546,15.9433075 C2.25150707,14.2993783 0.333333333,12.3358454 0.333333333,10.2222222 L0.333333333,21.662627 C0.333333333,27.4260906 14.5619198,32.100076 32.1187509,32.100076 C49.6721719,32.100076 63.9024634,27.4260906 63.9024634,21.662627 L63.9024634,10.2222222 C63.9024634,12.3358454 61.9842897,14.2993783 58.7003763,15.9433075" fill="#2A2B30"/>
      <path d="M32.1204559,0.444444444 C14.5636249,0.444444444 0.333333333,5.11666407 0.333333333,10.8801277 C0.333333333,12.9937509 2.25150707,14.9572839 5.5354205,16.601213 C11.2166248,19.4405664 20.9984584,21.3175768 32.1204559,21.3175768 C43.2390434,21.3175768 53.020877,19.4405664 58.7020813,16.601213 C61.9859947,14.9572839 63.9041685,12.9937509 63.9041685,10.8801277 C63.9041685,5.11666407 49.6738769,0.444444444 32.1204559,0.444444444" fill="#F97316"/>
    </g>
    <path d="M61.4664888,78 C65.0365294,78 67.9316304,80.9098011 67.9316304,84.500677 C67.9316304,88.0888449 65.0365294,91 61.4664888,91 C57.8951009,91 55,88.0888449 55,84.500677 C55,80.9098011 57.8951009,78 61.4664888,78" fill="#FFFFFF"/>
    <path d="M80.327081,78 C83.8984689,78 86.794917,80.9098011 86.794917,84.500677 C86.794917,88.0888449 83.8984689,91 80.327081,91 C76.7570403,91 73.8605922,88.0888449 73.8605922,84.500677 C73.8605922,80.9098011 76.7570403,78 80.327081,78" fill="#FFFFFF"/>
    <path d="M100.533511,78 C104.106246,78 107,80.9098011 107,84.500677 C107,88.0888449 104.106246,91 100.533511,91 C96.9621234,91 94.0683696,88.0888449 94.0683696,84.500677 C94.0683696,80.9098011 96.9621234,78 100.533511,78" fill="#FFFFFF"/>
  </g>
</svg>
