<?xml version="1.0" encoding="UTF-8"?>
<svg width="24" height="24" viewBox="0 0 24 24" fill="none" xmlns="http://www.w3.org/2000/svg">
    <path d="M12 24C18.6274 24 24 18.6274 24 12C24 5.37258 18.6274 0 12 0C5.37258 0 0 5.37258 0 12C0 18.6274 5.37258 24 12 24Z" fill="white"/>
    <path fill-rule="evenodd" clip-rule="evenodd" d="M21.9793 18.7375H2.02073C0.744363 16.8234 0 14.5217 0 12.0455C0 5.39294 5.37257 0 12 0C18.6274 0 24 5.39294 24 12.0455C24 14.5217 23.2556 16.8234 21.9793 18.7375Z" fill="#1877F2"/>
    <path fill-rule="evenodd" clip-rule="evenodd" d="M15.7734 13.9376L16.2299 10.9615H13.3744V9.03019C13.3744 8.21597 13.7733 7.42236 15.0523 7.42236H16.3505V4.88865C16.3505 4.88865 15.1723 4.68756 14.0458 4.68756C11.6941 4.68756 10.157 6.11285 10.157 8.69323V10.9615H7.54287V13.9376H10.157V21.1321C10.6812 21.2144 11.2184 21.2572 11.7657 21.2572C12.313 21.2572 12.8502 21.2144 13.3744 21.1321V13.9376H15.7734Z" fill="white"/>
    <path fill-rule="evenodd" clip-rule="evenodd" d="M9.96924 23.292C9.94743 23.2307 9.93053 23.1557 9.91853 23.067C9.90656 22.9784 9.89837 22.8881 9.89401 22.7961C9.83511 22.8727 9.76534 22.945 9.68463 23.0128C9.60396 23.0807 9.51344 23.1398 9.41312 23.1902C9.3128 23.2405 9.20264 23.281 9.08271 23.3117C8.96274 23.3423 8.83297 23.3576 8.6934 23.3576C8.52111 23.3576 8.36463 23.3325 8.22396 23.2821C8.08328 23.2317 7.96335 23.1612 7.86409 23.0703C7.76487 22.9795 7.688 22.8727 7.63349 22.7501C7.57894 22.6275 7.55168 22.494 7.55168 22.3495C7.55168 22.1766 7.58878 22.0206 7.6629 21.8816C7.73706 21.7425 7.84393 21.6243 7.98351 21.5269C8.12309 21.4295 8.29266 21.3551 8.49221 21.3036C8.69178 21.2522 8.91584 21.2264 9.16448 21.2264H9.89072V20.8226C9.89072 20.5686 9.81276 20.3689 9.65682 20.2232C9.50089 20.0777 9.27354 20.0049 8.97474 20.0049C8.83736 20.0049 8.71085 20.0235 8.59527 20.0607C8.47966 20.0979 8.37989 20.1494 8.29592 20.2151C8.21196 20.2807 8.14654 20.3568 8.09964 20.4433C8.05277 20.5298 8.02932 20.6222 8.02932 20.7208L7.63674 20.7175C7.63674 20.5839 7.66945 20.4548 7.73487 20.33C7.80032 20.2052 7.89245 20.0941 8.01132 19.9967C8.13018 19.8992 8.27302 19.821 8.43989 19.7619C8.60672 19.7028 8.79156 19.6732 8.99439 19.6732C9.18193 19.6732 9.35477 19.6973 9.51289 19.7455C9.67102 19.7936 9.80676 19.8659 9.92017 19.9622C10.0336 20.0585 10.1219 20.1789 10.1852 20.3234C10.2484 20.4679 10.28 20.6365 10.28 20.8291V22.5498C10.28 22.6111 10.2822 22.6746 10.2866 22.7403C10.2909 22.806 10.298 22.8695 10.3078 22.9308C10.3176 22.9921 10.3291 23.0506 10.3422 23.1064C10.3553 23.1623 10.3706 23.211 10.388 23.2526V23.292H9.96924ZM8.7392 23.0096C8.88097 23.0096 9.01236 22.9915 9.13342 22.9554C9.25445 22.9193 9.36402 22.8694 9.46218 22.806C9.56031 22.7425 9.64537 22.6686 9.71734 22.5843C9.78934 22.5 9.84711 22.4086 9.89072 22.3101V21.5286H9.22009C9.01945 21.5286 8.84007 21.5466 8.68194 21.5827C8.52382 21.6189 8.39024 21.6709 8.28121 21.7387C8.17215 21.8066 8.08873 21.8893 8.03096 21.9867C7.97316 22.0841 7.94425 22.1941 7.94425 22.3167C7.94425 22.413 7.9628 22.5033 7.99986 22.5876C8.03693 22.6719 8.08983 22.7452 8.15854 22.8076C8.22721 22.87 8.31066 22.9193 8.40879 22.9554C8.50695 22.9915 8.61708 23.0096 8.7392 23.0096ZM10.7871 21.4826C10.7871 21.2068 10.8187 20.9577 10.882 20.7355C10.9452 20.5133 11.0358 20.3234 11.1535 20.1658C11.2713 20.0082 11.4147 19.8867 11.5837 19.8013C11.7527 19.7159 11.943 19.6732 12.1546 19.6732C12.4054 19.6732 12.6208 19.7236 12.8007 19.8243C12.9806 19.925 13.1295 20.064 13.2472 20.2413V18.248H13.6365V23.292H13.2701L13.2538 22.8191C13.136 22.9877 12.986 23.1196 12.8039 23.2148C12.6218 23.31 12.4032 23.3576 12.148 23.3576C11.9386 23.3576 11.75 23.3133 11.5821 23.2247C11.4141 23.136 11.2713 23.0123 11.1535 22.8536C11.0358 22.6949 10.9452 22.505 10.882 22.2839C10.8187 22.0627 10.7871 21.8186 10.7871 21.5515V21.4826ZM11.183 21.5515C11.183 21.7595 11.2037 21.9527 11.2451 22.1311C11.2866 22.3096 11.3498 22.4645 11.4348 22.5958C11.5199 22.7272 11.6273 22.8301 11.7571 22.9045C11.8869 22.9789 12.0412 23.0161 12.22 23.0161C12.353 23.0161 12.4735 23.0003 12.5815 22.9685C12.6894 22.9368 12.7854 22.8925 12.8694 22.8355C12.9533 22.7786 13.0264 22.7107 13.0886 22.6319C13.1507 22.5531 13.2036 22.4677 13.2472 22.3758V20.7076C13.208 20.6179 13.16 20.5314 13.1033 20.4482C13.0466 20.365 12.9768 20.2911 12.8939 20.2265C12.811 20.162 12.7151 20.1105 12.606 20.0722C12.497 20.0339 12.3705 20.0148 12.2265 20.0148C12.0455 20.0148 11.8896 20.0525 11.7587 20.128C11.6279 20.2036 11.5199 20.307 11.4348 20.4384C11.3498 20.5697 11.2866 20.7251 11.2451 20.9046C11.2037 21.0842 11.183 21.2768 11.183 21.4826V21.5515ZM16.4074 22.3889C16.4074 22.3167 16.3949 22.2444 16.3698 22.1722C16.3447 22.0999 16.2978 22.0315 16.2291 21.9669C16.1604 21.9024 16.0644 21.8422 15.9412 21.7863C15.818 21.7305 15.6583 21.6818 15.462 21.6402C15.2657 21.5986 15.0907 21.5504 14.9369 21.4957C14.7832 21.441 14.6534 21.3748 14.5476 21.2971C14.4418 21.2193 14.3617 21.1268 14.3072 21.0196C14.2527 20.9123 14.2254 20.7864 14.2254 20.6419C14.2254 20.5106 14.2543 20.3858 14.3121 20.2676C14.3699 20.1494 14.4527 20.0465 14.5607 19.9589C14.6687 19.8713 14.7995 19.8018 14.9533 19.7504C15.107 19.6989 15.2799 19.6732 15.4718 19.6732C15.6768 19.6732 15.8606 19.7 16.023 19.7537C16.1855 19.8073 16.3229 19.8818 16.4352 19.977C16.5475 20.0722 16.6331 20.1844 16.692 20.3136C16.7509 20.4427 16.7803 20.5828 16.7803 20.7339H16.3878C16.3878 20.6419 16.3676 20.5522 16.3272 20.4646C16.2869 20.3771 16.228 20.2999 16.1506 20.2331C16.0732 20.1663 15.9772 20.1122 15.8627 20.0706C15.7482 20.029 15.6179 20.0082 15.4718 20.0082C15.3191 20.0082 15.1888 20.0268 15.0809 20.064C14.9729 20.1012 14.8846 20.1494 14.8159 20.2085C14.7472 20.2676 14.697 20.3338 14.6654 20.4072C14.6338 20.4805 14.618 20.5544 14.618 20.6288C14.618 20.7076 14.6299 20.7793 14.6539 20.8439C14.6779 20.9085 14.7243 20.9687 14.793 21.0245C14.8617 21.0803 14.9576 21.1318 15.0809 21.1789C15.2041 21.2259 15.3649 21.2724 15.5634 21.3184C15.7771 21.3688 15.9614 21.4246 16.1163 21.4859C16.2711 21.5472 16.3992 21.62 16.5006 21.7043C16.602 21.7885 16.6773 21.8849 16.7264 21.9932C16.7754 22.1016 16.8 22.2269 16.8 22.3692C16.8 22.5159 16.7694 22.65 16.7084 22.7715C16.6473 22.893 16.5601 22.997 16.4467 23.0835C16.3333 23.1699 16.1959 23.2372 16.0345 23.2854C15.8731 23.3336 15.6932 23.3576 15.4947 23.3576C15.27 23.3576 15.0716 23.3286 14.8993 23.2706C14.727 23.2126 14.582 23.1343 14.4642 23.0358C14.3464 22.9373 14.2576 22.824 14.1976 22.696C14.1376 22.5679 14.1076 22.4349 14.1076 22.297H14.5002C14.5089 22.4371 14.5449 22.5536 14.6081 22.6467C14.6714 22.7397 14.7499 22.8142 14.8437 22.87C14.9375 22.9258 15.0416 22.9658 15.1561 22.9899C15.2706 23.0139 15.3835 23.026 15.4947 23.026C15.643 23.026 15.7738 23.0085 15.8873 22.9734C16.0007 22.9384 16.0961 22.8914 16.1735 22.8323C16.2509 22.7731 16.3092 22.7053 16.3485 22.6286C16.3878 22.552 16.4074 22.4721 16.4074 22.3889Z" fill="#1877F2" stroke="#1877F2" stroke-width="0.1"/>
</svg>