<?xml version="1.0" encoding="UTF-8"?>
<svg width="200px" height="200px" viewBox="0 0 200 200" version="1.1" xmlns="http://www.w3.org/2000/svg" xmlns:xlink="http://www.w3.org/1999/xlink">
    <!-- Generator: Sketch 51.3 (57544) - http://www.bohemiancoding.com/sketch -->
    <title>Artboard 2</title>
    <desc>Created with Sketch.</desc>
    <defs></defs>
    <g id="Artboard-2" stroke="none" stroke-width="1" fill="none" fill-rule="evenodd">
        <path d="M93.6130653,16.9994746 L93.6130653,8.66886715 C93.6130653,4.98236997 96.6977753,2 100.510775,2 C104.3173,2 107.40201,4.98236997 107.40201,8.66886715 L107.40201,16.9994746 C107.40201,20.6859717 104.3173,23.6683417 100.510775,23.6683417 C96.6977753,23.6683417 93.6130653,20.6859717 93.6130653,16.9994746 Z" id="Fill-3" fill="#6366f1" class="theme-fill-shade-2" style="fill: rgb(99, 102, 241);"></path>
        <path d="M100.510775,198 C96.6977753,198 93.6130653,195.011371 93.6130653,191.331133 L93.6130653,183.000525 C93.6130653,179.314028 96.6977753,176.331658 100.510775,176.331658 C104.3173,176.331658 107.40201,179.314028 107.40201,183.000525 L107.40201,191.331133 C107.40201,195.011371 104.3173,198 100.510775,198" id="Fill-5" fill="#22d3ee" class="theme-fill-shade-5" style="fill: rgb(34, 211, 238);"></path>
        <path d="M154.708927,45.3062301 C152.041748,42.63916 152.041748,38.3115823 154.708927,35.6445122 L160.745342,29.6083428 C163.41252,26.9412727 167.740274,26.9412727 170.404247,29.6083428 C173.074631,32.2754129 173.074631,36.6029905 170.404247,39.2700606 L164.364626,45.3062301 C161.697448,47.9733002 157.369694,47.9733002 154.708927,45.3062301" id="Fill-7" fill="#2a2b30" class="theme-fill-shade-1" style="fill: rgb(42, 43, 48);"></path>
        <path d="M29.6234181,170.386686 C26.9563481,167.72581 26.9563481,163.39788 29.6234181,160.730593 L35.6595876,154.693933 C38.3266577,152.026646 42.6542354,152.026646 45.3213055,154.693933 C47.9883756,157.364426 47.9883756,161.68915 45.3213055,164.356437 L39.285136,170.386686 C36.6180659,173.060385 32.2904882,173.060385 29.6234181,170.386686" id="Fill-9" fill="#6366f1" class="theme-fill-shade-2" style="fill: rgb(99, 102, 241);"></path>
        <path d="M3.00000981,99.5075377 C2.99375091,95.6963277 5.98237843,92.6130653 9.66887395,92.6130653 L17.9994776,92.6130653 C21.6797142,92.6130653 24.6683417,95.7027984 24.6683417,99.5075377 C24.6620828,103.312277 21.6797142,106.40201 17.9994776,106.40201 L9.66887395,106.40201 C5.98550788,106.40201 3.00000981,103.312277 3.00000981,99.5075377" id="Fill-13" fill="#2a2b30" class="theme-fill-shade-1" style="fill: rgb(42, 43, 48);"></path>
        <path d="M29.6234181,29.6083428 C32.2904882,26.9412727 36.6180659,26.9412727 39.285136,29.6083428 L45.3213055,35.6445122 C47.9883756,38.3115823 47.9883756,42.63916 45.3213055,45.3062301 C42.6542354,47.9733002 38.3266577,47.9733002 35.6595876,45.3062301 L29.6234181,39.2700606 C26.9563481,36.6029905 26.9563481,32.2754129 29.6234181,29.6083428" id="Fill-18" fill="#ec4899" class="theme-fill-shade-3" style="fill: rgb(236, 72, 153);"></path>
        <ellipse id="Oval-3" fill="#2a2b30" class="theme-fill-shade-1" cx="101" cy="102" rx="58" ry="57" style="fill: rgb(42, 43, 48);"></ellipse>
        <path d="M128.310157,120.654506 L112.008023,104.671773 L123.851691,93.0576242 C124.428266,92.4917127 124.666249,91.6741444 124.479217,90.8957789 C124.292829,90.1167811 123.709804,89.4889039 122.936522,89.2334533 L77.1071276,74.1207699 C76.8614057,74.0385705 76.6079445,74 76.3564182,74 C75.741146,74 75.1394175,74.2364815 74.6892498,74.6771969 C74.0572092,75.2968543 73.8379298,76.2155911 74.122993,77.04707 L89.5409144,121.977917 C89.800825,122.735416 90.4418947,123.308283 91.2358151,123.491019 C91.4144633,123.532118 91.5944014,123.55172 91.7743395,123.55172 C92.3921915,123.55172 92.9926301,123.313974 93.440218,122.875155 L105.287755,111.261639 L121.590533,127.245004 C122.031672,127.679396 122.631465,127.921569 123.257056,127.921569 C123.882003,127.921569 124.481151,127.678132 124.92358,127.244372 L128.310802,123.921617 C129.22984,123.01932 129.22984,121.556803 128.310157,120.654506" id="Fill-4" fill="#FFFFFF"></path>
    </g>
</svg>