<?xml version="1.0" encoding="UTF-8"?>
<svg width="200px" height="200px" viewBox="0 0 200 200" version="1.1" xmlns="http://www.w3.org/2000/svg" xmlns:xlink="http://www.w3.org/1999/xlink">
    <!-- Generator: Sketch 51.3 (57544) - http://www.bohemiancoding.com/sketch -->
    <title>Artboard 2</title>
    <desc>Created with Sketch.</desc>
    <defs></defs>
    <g id="Artboard-2" stroke="none" stroke-width="1" fill="none" fill-rule="evenodd">
        <path d="M92.6130653,16.9994746 L92.6130653,8.66886715 C92.6130653,4.98236997 95.6977753,2 99.5107745,2 C103.3173,2 106.40201,4.98236997 106.40201,8.66886715 L106.40201,16.9994746 C106.40201,20.6859717 103.3173,23.6683417 99.5107745,23.6683417 C95.6977753,23.6683417 92.6130653,20.6859717 92.6130653,16.9994746 Z" id="Fill-3" fill="#6366f1" class="theme-fill-shade-2" style="fill: rgb(99, 102, 241);"></path>
        <path d="M99.5107745,198 C95.6977753,198 92.6130653,195.011371 92.6130653,191.331133 L92.6130653,183.000525 C92.6130653,179.314028 95.6977753,176.331658 99.5107745,176.331658 C103.3173,176.331658 106.40201,179.314028 106.40201,183.000525 L106.40201,191.331133 C106.40201,195.011371 103.3173,198 99.5107745,198" id="Fill-5" fill="#22d3ee" class="theme-fill-shade-5" style="fill: rgb(34, 211, 238);"></path>
        <path d="M153.708927,45.3062301 C151.041748,42.63916 151.041748,38.3115823 153.708927,35.6445122 L159.745342,29.6083428 C162.41252,26.9412727 166.740274,26.9412727 169.404247,29.6083428 C172.074631,32.2754129 172.074631,36.6029905 169.404247,39.2700606 L163.364626,45.3062301 C160.697448,47.9733002 156.369694,47.9733002 153.708927,45.3062301" id="Fill-7" fill="#2a2b30" class="theme-fill-shade-1" style="fill: rgb(42, 43, 48);"></path>
        <path d="M28.6234181,170.386686 C25.9563481,167.72581 25.9563481,163.39788 28.6234181,160.730593 L34.6595876,154.693933 C37.3266577,152.026646 41.6542354,152.026646 44.3213055,154.693933 C46.9883756,157.364426 46.9883756,161.68915 44.3213055,164.356437 L38.285136,170.386686 C35.6180659,173.060385 31.2904882,173.060385 28.6234181,170.386686" id="Fill-9" fill="#6366f1" class="theme-fill-shade-2" style="fill: rgb(99, 102, 241);"></path>
        <path d="M2.00000981,99.5075377 C1.99375091,95.6963277 4.98237843,92.6130653 8.66887395,92.6130653 L16.9994776,92.6130653 C20.6797142,92.6130653 23.6683417,95.7027984 23.6683417,99.5075377 C23.6620828,103.312277 20.6797142,106.40201 16.9994776,106.40201 L8.66887395,106.40201 C4.98550788,106.40201 2.00000981,103.312277 2.00000981,99.5075377" id="Fill-13" fill="#2a2b30" class="theme-fill-shade-1" style="fill: rgb(42, 43, 48);"></path>
        <path d="M28.6234181,29.6083428 C31.2904882,26.9412727 35.6180659,26.9412727 38.285136,29.6083428 L44.3213055,35.6445122 C46.9883756,38.3115823 46.9883756,42.63916 44.3213055,45.3062301 C41.6542354,47.9733002 37.3266577,47.9733002 34.6595876,45.3062301 L28.6234181,39.2700606 C25.9563481,36.6029905 25.9563481,32.2754129 28.6234181,29.6083428" id="Fill-18" fill="#ec4899" class="theme-fill-shade-3" style="fill: rgb(236, 72, 153);"></path>
        <ellipse id="Oval-3" fill="#2a2b30" class="theme-fill-shade-1" cx="100" cy="102" rx="58" ry="57" style="fill: rgb(42, 43, 48);"></ellipse>
        <path d="M116.310157,131.654506 L100.008023,115.671773 L111.851691,104.057624 C112.428266,103.491713 112.666249,102.674144 112.479217,101.895779 C112.292829,101.116781 111.709804,100.488904 110.936522,100.233453 L65.1071276,85.1207699 C64.8614057,85.0385705 64.6079445,85 64.3564182,85 C63.741146,85 63.1394175,85.2364815 62.6892498,85.6771969 C62.0572092,86.2968543 61.8379298,87.2155911 62.122993,88.04707 L77.5409144,132.977917 C77.800825,133.735416 78.4418947,134.308283 79.2358151,134.491019 C79.4144633,134.532118 79.5944014,134.55172 79.7743395,134.55172 C80.3921915,134.55172 80.9926301,134.313974 81.440218,133.875155 L93.2877548,122.261639 L109.590533,138.245004 C110.031672,138.679396 110.631465,138.921569 111.257056,138.921569 C111.882003,138.921569 112.481151,138.678132 112.92358,138.244372 L116.310802,134.921617 C117.22984,134.01932 117.22984,132.556803 116.310157,131.654506" id="Fill-4-Copy" stroke="#FFFFFF" stroke-width="4" fill="#2a2b30" class="theme-fill-shade-1" style="fill: rgb(42, 43, 48);"></path>
        <path d="M137.310157,112.654506 L121.008023,96.6717729 L132.851691,85.0576242 C133.428266,84.4917127 133.666249,83.6741444 133.479217,82.8957789 C133.292829,82.1167811 132.709804,81.4889039 131.936522,81.2334533 L86.1071276,66.1207699 C85.8614057,66.0385705 85.6079445,66 85.3564182,66 C84.741146,66 84.1394175,66.2364815 83.6892498,66.6771969 C83.0572092,67.2968543 82.8379298,68.2155911 83.122993,69.04707 L98.5409144,113.977917 C98.800825,114.735416 99.4418947,115.308283 100.235815,115.491019 C100.414463,115.532118 100.594401,115.55172 100.77434,115.55172 C101.392191,115.55172 101.99263,115.313974 102.440218,114.875155 L114.287755,103.261639 L130.590533,119.245004 C131.031672,119.679396 131.631465,119.921569 132.257056,119.921569 C132.882003,119.921569 133.481151,119.678132 133.92358,119.244372 L137.310802,115.921617 C138.22984,115.01932 138.22984,113.556803 137.310157,112.654506" id="Fill-4" stroke="#FFFFFF" stroke-width="4" fill="#2a2b30" class="theme-fill-shade-1" style="fill: rgb(42, 43, 48);"></path>
    </g>
</svg>