<?xml version="1.0" encoding="UTF-8"?>
<svg width="200px" height="200px" viewBox="0 0 200 200" version="1.1" xmlns="http://www.w3.org/2000/svg" xmlns:xlink="http://www.w3.org/1999/xlink">
    <!-- Generator: Sketch 51.3 (57544) - http://www.bohemiancoding.com/sketch -->
    <title>Artboard 2</title>
    <desc>Created with Sketch.</desc>
    <defs></defs>
    <g id="Artboard-2" stroke="none" stroke-width="1" fill="none" fill-rule="evenodd">
        <path d="M96.5030516,24 C92.908216,24 90,21.1096187 90,17.5368284 L90,9.46317158 C90,5.89038128 92.908216,3 96.5030516,3 C100.091784,3 103,5.89038128 103,9.46317158 L103,17.5368284 C103,21.1096187 100.091784,24 96.5030516,24" id="Fill-3" fill="#6366f1" class="theme-fill-shade-2" style="fill: rgb(99, 102, 241);"></path>
        <path d="M146.827902,44.1721725 C144.390699,41.7350692 144.390699,37.7806347 146.827902,35.3435313 L152.34383,29.8278275 C154.781033,27.3907242 158.735628,27.3907242 161.169901,29.8278275 C163.610033,32.2649308 163.610033,36.2193653 161.169901,38.6564687 L155.651044,44.1721725 C153.213841,46.6092758 149.259246,46.6092758 146.827902,44.1721725" id="Fill-7" fill="#2a2b30" class="theme-fill-shade-1" style="fill: rgb(42, 43, 48);"></path>
        <path d="M29.8278275,161.16763 C27.3907242,158.736187 27.3907242,154.781431 29.8278275,152.344129 L35.3435313,146.827976 C37.7806347,144.390675 41.7350692,144.390675 44.1721725,146.827976 C46.6092758,149.268207 46.6092758,153.220034 44.1721725,155.657336 L38.6564687,161.16763 C36.2193653,163.61079 32.2649308,163.61079 29.8278275,161.16763" id="Fill-9" fill="#6366f1" class="theme-fill-shade-2" style="fill: rgb(99, 102, 241);"></path>
        <path d="M3.00000951,96.5 C2.99394366,92.9068512 5.89038948,90 9.46317816,90 L17.5368313,90 C21.1035542,90 24,92.9129517 24,96.5 C23.9939341,100.087048 21.1035542,103 17.5368313,103 L9.46317816,103 C5.89342241,103 3.00000951,100.087048 3.00000951,96.5" id="Fill-13" fill="#2a2b30" class="theme-fill-shade-1" style="fill: rgb(42, 43, 48);"></path>
        <path d="M29.8278275,29.8278275 C32.2649308,27.3907242 36.2193653,27.3907242 38.6564687,29.8278275 L44.1721725,35.3435313 C46.6092758,37.7806347 46.6092758,41.7350692 44.1721725,44.1721725 C41.7350692,46.6092758 37.7806347,46.6092758 35.3435313,44.1721725 L29.8278275,38.6564687 C27.3907242,36.2193653 27.3907242,32.2649308 29.8278275,29.8278275" id="Fill-18" fill="#ec4899" class="theme-fill-shade-3" style="fill: rgb(236, 72, 153);"></path>
        <ellipse id="Oval-2" fill="#f97316" class="theme-fill-shade-4" cx="96" cy="183.5" rx="64" ry="13.5" style="fill: rgb(249, 115, 22);"></ellipse>
        <path d="M96.5,176.757775 C96.5,181.862115 92.3597572,186 87.25,186 C82.1413661,186 78,181.867232 78,176.757775 L78,141 L115,141 L115,176.757775 C115,181.862115 110.859757,186 105.75,186 C100.641366,186 96.5,181.867232 96.5,176.757775 Z" id="Combined-Shape" fill="#2a2b30" class="theme-fill-shade-1" style="fill: rgb(42, 43, 48);"></path>
        <circle id="Oval" fill="#2a2b30" class="theme-fill-shade-1" cx="96.5" cy="57.5" r="18.5" style="fill: rgb(42, 43, 48);"></circle>
        <path d="M129,112 C129,93.7746033 114.225408,79 96.0000261,79 C77.7746438,79 63.0000522,93.7746033 63.0000522,112 C62.9323765,112 128.679346,112 129,112 Z" id="Combined-Shape" fill="#6366f1" class="theme-fill-shade-2" style="fill: rgb(99, 102, 241);"></path>
        <path d="M63,111 L129,111 L129,126.5 C129,134.508129 122.50617,141 114.495608,141 L77.5043925,141 C69.4938377,141 63,134.50989 63,126.5 L63,111 Z" id="Rectangle" fill="#6366f1" class="theme-fill-shade-2" style="fill: rgb(99, 102, 241);"></path>
        <path d="M184.744656,182.757953 C180.09739,185.08508 172.097176,186.622026 163.000697,186.622026 C153.902824,186.622026 145.901215,185.08508 141.25395,182.757953 C138.56908,181.410593 137,179.801286 137,178.068966 L137,187.445493 C137,192.169213 148.639085,196 163.000697,196 C177.35952,196 189,192.169213 189,187.445493 L189,178.068966 C189,179.801286 187.43092,181.410593 184.744656,182.757953" id="Fill-13" fill="#2a2b30" class="theme-fill-shade-1" style="fill: rgb(42, 43, 48);"></path>
        <path d="M137,178.516521 C137,180.241441 138.569038,181.843872 141.25523,183.185476 C145.902371,185.502662 153.903766,187.034483 163.001395,187.034483 C172.096234,187.034483 180.097629,185.502662 184.74477,183.185476 C187.430962,181.843872 189,180.241441 189,178.516521 C189,173.81298 177.359833,170 163.001395,170 C148.640167,170 137,173.81298 137,178.516521 Z" id="Fill-16" fill="#6366f1" class="theme-fill-shade-2" style="fill: rgb(99, 102, 241);"></path>
        <path d="M184.744656,168.757953 C180.09739,171.08508 172.097176,172.622026 163.000697,172.622026 C153.902824,172.622026 145.901215,171.08508 141.25395,168.757953 C138.56908,167.410593 137,165.801286 137,164.068966 L137,173.445493 C137,178.169213 148.639085,182 163.000697,182 C177.35952,182 189,178.169213 189,173.445493 L189,164.068966 C189,165.801286 187.43092,167.410593 184.744656,168.757953" id="Fill-13-Copy" fill="#2a2b30" class="theme-fill-shade-1" style="fill: rgb(42, 43, 48);"></path>
        <path d="M137,164.516521 C137,166.241441 138.569038,167.843872 141.25523,169.185476 C145.902371,171.502662 153.903766,173.034483 163.001395,173.034483 C172.096234,173.034483 180.097629,171.502662 184.74477,169.185476 C187.430962,167.843872 189,166.241441 189,164.516521 C189,159.81298 177.359833,156 163.001395,156 C148.640167,156 137,159.81298 137,164.516521 Z" id="Fill-16-Copy" fill="#6366f1" class="theme-fill-shade-2" style="fill: rgb(99, 102, 241);"></path>
        <path d="M184.499713,154.736607 C179.883734,157.043582 171.93738,158.567218 162.902142,158.567218 C153.865519,158.567218 145.91778,157.043582 141.301801,154.736607 C138.635007,153.400915 137.076491,151.805544 137.076491,150.088225 L137.076491,159.383554 C137.076491,164.066368 148.637217,167.863981 162.902142,167.863981 C177.164297,167.863981 188.726409,164.066368 188.726409,159.383554 L188.726409,150.088225 C188.726409,151.805544 187.167893,153.400915 184.499713,154.736607" id="Fill-13" fill="#2a2b30" class="theme-fill-shade-1" style="fill: rgb(42, 43, 48);"></path>
        <path d="M162.902419,142.182533 C148.637494,142.182533 137.075382,145.978711 137.075382,150.661526 C137.075382,152.378844 138.633898,153.974215 141.302078,155.309907 C145.918057,157.616882 153.865796,159.141953 162.902419,159.141953 C171.936272,159.141953 179.884011,157.616882 184.49999,155.309907 C187.16817,153.974215 188.726686,152.378844 188.726686,150.661526 C188.726686,145.978711 177.164574,142.182533 162.902419,142.182533" id="Fill-16" fill="#f97316" class="theme-fill-shade-4" style="fill: rgb(249, 115, 22);"></path>
    </g>
</svg>