<?xml version="1.0" encoding="UTF-8"?>
<svg width="200px" height="200px" viewBox="0 0 200 200" version="1.1" xmlns="http://www.w3.org/2000/svg" xmlns:xlink="http://www.w3.org/1999/xlink">
    <!-- Generator: Sketch 51.3 (57544) - http://www.bohemiancoding.com/sketch -->
    <title>Artboard 2</title>
    <desc>Created with Sketch.</desc>
    <defs></defs>
    <g id="Artboard-2" stroke="none" stroke-width="1" fill="none" fill-rule="evenodd">
        <circle id="Love-Oval" fill="#ec4899" cx="100" cy="100" r="92"></circle>
        <path d="M45.7934788,86.9334288 C45.2746733,84.7567324 45,82.4853417 45,80.1497976 C45,64.0508089 58.0508089,51 74.1497976,51 C85.4305469,51 95.2146496,57.4079061 100.060729,66.7823415 C104.906808,57.4079061 114.690911,51 125.97166,51 C142.070649,51 155.121457,64.0508089 155.121457,80.1497976 C155.121457,82.2480576 154.899761,84.2945377 154.478514,86.2670917 C154.444685,86.648444 154.389287,87.0384368 154.311741,87.437247 C148.643725,116.587045 100.870445,149.785425 100.870445,149.785425 C100.870445,149.785425 47.4291498,114.967612 45.8097166,87.437247 C45.7997411,87.2676633 45.7943482,87.0997291 45.7934788,86.9334288 Z" id="Love" fill="#FFFFFF"></path>
    </g>
</svg>