<?xml version="1.0" encoding="UTF-8"?>
<svg width="200px" height="200px" viewBox="0 0 200 200" version="1.1" xmlns="http://www.w3.org/2000/svg" xmlns:xlink="http://www.w3.org/1999/xlink">
    <!-- Generator: Sketch 51.3 (57544) - http://www.bohemiancoding.com/sketch -->
    <title>Artboard 2</title>
    <desc>Created with Sketch.</desc>
    <defs></defs>
    <g id="Artboard-2" stroke="none" stroke-width="1" fill="none" fill-rule="evenodd">
        <path d="M93.6130653,16.9994746 L93.6130653,8.66886715 C93.6130653,4.98236997 96.6977753,2 100.510775,2 C104.3173,2 107.40201,4.98236997 107.40201,8.66886715 L107.40201,16.9994746 C107.40201,20.6859717 104.3173,23.6683417 100.510775,23.6683417 C96.6977753,23.6683417 93.6130653,20.6859717 93.6130653,16.9994746 Z" id="Fill-3" fill="#6366f1" class="theme-fill-shade-2" style="fill: rgb(99, 102, 241);"></path>
        <path d="M100.510775,198 C96.6977753,198 93.6130653,195.011371 93.6130653,191.331133 L93.6130653,183.000525 C93.6130653,179.314028 96.6977753,176.331658 100.510775,176.331658 C104.3173,176.331658 107.40201,179.314028 107.40201,183.000525 L107.40201,191.331133 C107.40201,195.011371 104.3173,198 100.510775,198" id="Fill-5" fill="#22d3ee" class="theme-fill-shade-5" style="fill: rgb(34, 211, 238);"></path>
        <path d="M154.708927,45.3062301 C152.041748,42.63916 152.041748,38.3115823 154.708927,35.6445122 L160.745342,29.6083428 C163.41252,26.9412727 167.740274,26.9412727 170.404247,29.6083428 C173.074631,32.2754129 173.074631,36.6029905 170.404247,39.2700606 L164.364626,45.3062301 C161.697448,47.9733002 157.369694,47.9733002 154.708927,45.3062301" id="Fill-7" fill="#2a2b30" class="theme-fill-shade-1" style="fill: rgb(42, 43, 48);"></path>
        <path d="M29.6234181,170.386686 C26.9563481,167.72581 26.9563481,163.39788 29.6234181,160.730593 L35.6595876,154.693933 C38.3266577,152.026646 42.6542354,152.026646 45.3213055,154.693933 C47.9883756,157.364426 47.9883756,161.68915 45.3213055,164.356437 L39.285136,170.386686 C36.6180659,173.060385 32.2904882,173.060385 29.6234181,170.386686" id="Fill-9" fill="#6366f1" class="theme-fill-shade-2" style="fill: rgb(99, 102, 241);"></path>
        <path d="M3.00000981,99.5075377 C2.99375091,95.6963277 5.98237843,92.6130653 9.66887395,92.6130653 L17.9994776,92.6130653 C21.6797142,92.6130653 24.6683417,95.7027984 24.6683417,99.5075377 C24.6620828,103.312277 21.6797142,106.40201 17.9994776,106.40201 L9.66887395,106.40201 C5.98550788,106.40201 3.00000981,103.312277 3.00000981,99.5075377" id="Fill-13" fill="#2a2b30" class="theme-fill-shade-1" style="fill: rgb(42, 43, 48);"></path>
        <path d="M29.6234181,29.6083428 C32.2904882,26.9412727 36.6180659,26.9412727 39.285136,29.6083428 L45.3213055,35.6445122 C47.9883756,38.3115823 47.9883756,42.63916 45.3213055,45.3062301 C42.6542354,47.9733002 38.3266577,47.9733002 35.6595876,45.3062301 L29.6234181,39.2700606 C26.9563481,36.6029905 26.9563481,32.2754129 29.6234181,29.6083428" id="Fill-18" fill="#ec4899" class="theme-fill-shade-3" style="fill: rgb(236, 72, 153);"></path>
        <path d="M156.801038,93.3667476 C156.09649,88.0361839 154.645933,82.8594009 152.465953,77.9126061 C149.542956,71.2800962 145.435426,65.3357754 140.257276,60.24476 C129.602329,49.7690982 115.52333,44 100.613636,44 C91.4666099,44 82.3738213,46.2434775 74.3180762,50.4878796 C69.7610111,52.8888252 65.5319556,55.9296133 61.7762238,59.4785879 L73.0911323,77.1828989 C76.0863111,73.6906019 79.7356062,70.7654908 83.787811,68.6304519 C89.0072846,65.8802902 94.6684091,64.4858844 100.613636,64.4858844 C110.160174,64.4858844 119.174529,68.1794893 125.996125,74.8864313 C131.179848,79.9829096 134.658681,86.3857045 136.122967,93.3664744 L122.492144,93.3664744 L147.246208,131 L172,93.3667476 L156.801038,93.3667476 Z" id="Fill-1" fill="#6366f1" class="theme-fill-shade-2" style="fill: rgb(99, 102, 241);"></path>
        <path d="M139.209045,140.512199 L129.068515,124.201806 C126.060126,127.882364 122.342294,130.969032 118.177041,133.220271 C112.959896,136.040153 107.045514,137.530471 101.073356,137.530471 C91.5851728,137.530471 82.6162897,133.864242 75.8190018,127.207006 C70.5941267,122.090033 67.0907139,115.638993 65.6310039,108.603479 L79.3942947,108.603479 L54.6970795,71 L30,108.603206 L45.0066823,108.603206 C46.6555864,121.226628 52.438957,132.874199 61.6294479,141.875334 C72.246557,152.273581 86.2546473,158 101.073356,158 C115.804588,158 129.790979,152.22309 140.223776,142.157813 L140.143759,142.13093 C140.143759,142.13093 139.788562,141.516571 139.209045,140.512199" id="Fill-4" fill="#2a2b30" class="theme-fill-shade-1" style="fill: rgb(42, 43, 48);"></path>
    </g>
</svg>