<?xml version="1.0" encoding="UTF-8"?>
<svg width="200px" height="200px" viewBox="0 0 200 200" version="1.1" xmlns="http://www.w3.org/2000/svg" xmlns:xlink="http://www.w3.org/1999/xlink">
    <!-- Generator: Sketch 48.2 (47327) - http://www.bohemiancoding.com/sketch -->
    <title>Total-followers</title>
    <desc>Created with Sketch.</desc>
    <defs></defs>
    <g id="Page-1" stroke="none" stroke-width="1" fill="none" fill-rule="evenodd">
        <g id="Total-followers">
            <g id="LinkedIn-new-followers">
                <path d="M78,41 C59.2223199,41 44,56.2231638 44,75 C44,93.7782914 59.2223199,109 78,109 C96.779174,109 112,93.7782914 112,75 C112,56.2231638 96.779174,41 78,41 Z" id="Fill-1" fill="#2a2b30" class="theme-fill-shade-1" style="fill: rgb(42, 43, 48);"></path>
                <path d="M53.1278461,120 C35.1660158,120 18,135.014705 18,153.362916 L18,157 L138,157 L138,153.362916 C138,135.014705 120.833984,120 102.872154,120 L53.1278461,120 Z" id="Fill-4" fill="#2a2b30" class="theme-fill-shade-1" style="fill: rgb(42, 43, 48);"></path>
                <polygon id="Combined-Shape" fill="#2a2b30" class="theme-fill-shade-1" points="153.6 71.6 153.6 56 161.4 56 161.4 71.6 177 71.6 177 79.4 161.4 79.4 161.4 95 153.6 95 153.6 79.4 138 79.4 138 71.6" style="fill: rgb(42, 43, 48);"></polygon>
                <circle id="Oval-5" fill="#FFFFFF" cx="39" cy="161" r="37"></circle>
                <path d="M60.5190958,172.7788 L52.3877569,172.7788 L52.3877569,160.903422 C52.3877569,157.795346 51.1182612,155.674656 48.3202635,155.674656 C46.1813335,155.674656 44.9920933,157.105878 44.4376009,158.486029 C44.2308822,158.979722 44.262498,159.670406 44.262498,160.362305 L44.262498,172.7788 L36.2077667,172.7788 C36.2077667,172.7788 36.312342,151.743354 36.2077667,149.831814 L44.262498,149.831814 L44.262498,153.432366 C44.7379509,151.857657 47.3122061,149.610503 51.4222592,149.610503 C56.5160499,149.610503 60.5190958,152.911922 60.5190958,160.018179 L60.5190958,172.7788 Z M28.0618359,146.960857 L28.0107643,146.960857 C25.4158372,146.960857 23.7329042,145.20618 23.7329042,142.984563 C23.7329042,140.717954 25.4656929,138.999757 28.1129076,138.999757 C30.7564743,138.999757 32.3846877,140.71309 32.4357593,142.978483 C32.4357593,145.201316 30.7564743,146.960857 28.0618359,146.960857 Z M24.6607062,172.7788 L31.8314113,172.7788 L31.8314113,149.831814 L24.6607062,149.831814 L24.6607062,172.7788 Z" id="Page-1" fill="#2a2b30" class="theme-fill-shade-1" style="fill: rgb(42, 43, 48);"></path>
            </g>
        </g>
    </g>
</svg>