<?xml version="1.0" encoding="UTF-8"?>
<svg width="200px" height="200px" viewBox="0 0 200 200" version="1.1" xmlns="http://www.w3.org/2000/svg" xmlns:xlink="http://www.w3.org/1999/xlink">
    <!-- Generator: Sketch 51.3 (57544) - http://www.bohemiancoding.com/sketch -->
    <title>Artboard 2</title>
    <desc>Created with Sketch.</desc>
    <defs></defs>
    <g id="Artboard-2" stroke="none" stroke-width="1" fill="none" fill-rule="evenodd">
        <circle id="Oval-4" fill="#22d3ee" class="theme-fill-shade-3" cx="100" cy="100" r="48" style="fill: rgb(236, 72, 153);"></circle>
        <circle id="Oval-4" fill="#2a2b30" class="theme-fill-shade-1" cx="28" cy="28" r="25" style="fill: rgb(42, 43, 48);"></circle>
        <circle id="Oval-4-Copy-7" fill="#2a2b30" class="theme-fill-shade-1" cx="171" cy="28" r="25" style="fill: rgb(42, 43, 48);"></circle>
        <circle id="Oval-4-Copy-8" fill="#2a2b30" class="theme-fill-shade-1" cx="171" cy="171" r="25" style="fill: rgb(42, 43, 48);"></circle>
        <circle id="Oval-4-Copy-9" fill="#2a2b30" class="theme-fill-shade-1" cx="27" cy="171" r="25" style="fill: rgb(42, 43, 48);"></circle>
        <path d="M99.5,77 C93.1487258,77 88,82.1490113 88,88.5 C88,94.8514809 93.1487258,100 99.5,100 C105.851779,100 111,94.8514809 111,88.5 C111,82.1490113 105.851779,77 99.5,77 Z" id="Fill-1" fill="#FFFFFF"></path>
        <path d="M90.709282,103 C84.7220053,103 79,108.275437 79,114.722106 L79,116 L119,116 L119,114.722106 C119,108.275437 113.277995,103 107.290718,103 L90.709282,103 Z" id="Fill-4" fill="#FFFFFF"></path>
    </g>
</svg>