<svg width="200" height="200" viewBox="0 0 200 200" xmlns="http://www.w3.org/2000/svg">
  <g stroke="none" stroke-width="1" fill="none" fill-rule="evenodd">
    <path d="M172,84.4567175 C172,79.2180075 167.806237,74.9730322 162.635113,74.9730322 L138.220658,74.9730322 L127.901512,74.9730322 L118.350038,74.9730322 C116.064793,74.1863256 116.731175,71.4211509 119.778761,64.8070545 C123.501615,56.7239591 130.949099,38.5793001 124.03472,35.7043104 C110.285929,29.9921363 97.2586074,60.4954702 88.7466894,74.1485205 C80.7554378,86.9644573 73.5460743,86.3235705 68,82.7770898 L68,134.555707 C70.5855617,137.142658 75.7549082,141.940308 81.8607433,145.564199 C86.2286544,147.971125 93.7596583,149.55534 100.665152,150 C100.69003,149.9964 100.718462,149.992799 100.745117,149.989199 L107.684374,149.989199 L138.220658,149.989199 L142.419752,149.989199 C147.59443,149.989199 151.784639,145.744223 151.784639,140.503713 C151.784639,135.729466 148.299906,131.790532 143.770286,131.126242 L152.795762,131.126242 C157.965109,131.126242 162.157095,126.881267 162.157095,121.640757 C162.157095,116.86831 158.672362,112.929376 154.142742,112.265086 L159.445365,112.265086 C164.616489,112.265086 168.808475,108.018311 168.808475,102.779601 C168.808475,98.7416534 166.313541,95.3031874 162.80393,93.9332017 C167.895088,93.8413893 172,89.6378196 172,84.4567175" fill="#6366F1"/>
    <path d="M62.5706514,77 L35.4293486,77 C32.429969,77 30,79.4703964 30,82.5196767 L30,149.480323 C30,152.529604 32.429969,155 35.4293486,155 L62.5706514,155 C65.5682176,155 68,152.529604 68,149.480323 L68,137.943204 L68,84.9181734 L68,82.5196767 C68,79.4703964 65.5682176,77 62.5706514,77" fill="#2A2B30"/>
    <path d="M41,135.000923 C41,139.971086 44.8046955,144 49.5,144 C54.1970474,144 58,139.971086 58,135.000923 C58,130.032605 54.1970474,126 49.5,126 C44.8046955,126 41,130.032605 41,135.000923" fill="#FFFFFF"/>
    <g transform="translate(134, 131)">
      <path d="M58.7626532,50.5733854 C53.0429418,53.4491774 43.1965239,55.3484877 32.0008583,55.3484877 C20.8034761,55.3484877 10.9553416,53.4491774 5.23563018,50.5733854 C1.93117507,48.9083591 0,46.9196274 0,44.7788793 L0,56.3661032 C0,62.2035316 14.3250275,66.9375 32.0008583,66.9375 C49.6732559,66.9375 64,62.2035316 64,56.3661032 L64,44.7788793 C64,46.9196274 62.0688249,48.9083591 58.7626532,50.5733854" fill="#2A2B30"/>
      <path d="M0,45.4858337 C0,47.6174364 1.93112327,49.5976722 5.23720631,51.2555854 C10.9567643,54.1190918 20.8046347,56.012069 32.0017166,56.012069 C43.1953653,56.012069 53.0432357,54.1190918 58.7627937,51.2555854 C62.0688767,49.5976722 64,47.6174364 64,45.4858337 C64,39.6733432 49.6736402,34.9613793 32.0017166,34.9613793 C14.3263598,34.9613793 0,39.6733432 0,45.4858337 Z" fill="#6366F1"/>
      <path d="M58.7626532,33.6158854 C53.0429418,36.4916774 43.1965239,38.3909877 32.0008583,38.3909877 C20.8034761,38.3909877 10.9553416,36.4916774 5.23563018,33.6158854 C1.93117507,31.9508591 0,29.9621274 0,27.8213793 L0,39.4086032 C0,45.2460316 14.3250275,49.98 32.0008583,49.98 C49.6732559,49.98 64,45.2460316 64,39.4086032 L64,27.8213793 C64,29.9621274 62.0688249,31.9508591 58.7626532,33.6158854" fill="#2A2B30"/>
      <path d="M0,28.5283337 C0,30.6599364 1.93112327,32.6401722 5.23720631,34.2980854 C10.9567643,37.1615918 20.8046347,39.054569 32.0017166,39.054569 C43.1953653,39.054569 53.0432357,37.1615918 58.7627937,34.2980854 C62.0688767,32.6401722 64,30.6599364 64,28.5283337 C64,22.7158432 49.6736402,18.0038793 32.0017166,18.0038793 C14.3263598,18.0038793 0,22.7158432 0,28.5283337 Z" fill="#6366F1"/>
      <path d="M58.3670429,15.7157065 C52.6858386,18.5665948 42.9057101,20.4494576 31.7854176,20.4494576 C20.66342,20.4494576 10.8815865,18.5665948 5.20038213,15.7157065 C1.91817374,14.0650989 0,12.0935891 0,9.97137931 L0,21.4582607 C0,27.2451384 14.2285865,31.9381119 31.7854176,31.9381119 C49.3388386,31.9381119 63.5691301,27.2451384 63.5691301,21.4582607 L63.5691301,9.97137931 C63.5691301,12.0935891 61.6509564,14.0650989 58.3670429,15.7157065" fill="#2A2B30"/>
      <path d="M31.7871226,0.15387931 C14.2302915,0.15387931 0,4.84507983 0,10.6319576 C0,12.7541673 1.91817374,14.7256771 5.20208717,16.3762847 C10.8832915,19.227173 20.665125,21.1118087 31.7871226,21.1118087 C42.9057101,21.1118087 52.6875436,19.227173 58.368748,16.3762847 C61.6526614,14.7256771 63.5708351,12.7541673 63.5708351,10.6319576 C63.5708351,4.84507983 49.3405436,0.15387931 31.7871226,0.15387931" fill="#F97316"/>
    </g>
  </g>
</svg>
