<?xml version="1.0" encoding="UTF-8"?>
<svg width="200px" height="200px" viewBox="0 0 200 200" version="1.1" xmlns="http://www.w3.org/2000/svg" xmlns:xlink="http://www.w3.org/1999/xlink">
    <!-- Generator: Sketch 51.3 (57544) - http://www.bohemiancoding.com/sketch -->
    <title>Artboard 2</title>
    <desc>Created with Sketch.</desc>
    <defs></defs>
    <g id="Artboard-2" stroke="none" stroke-width="1" fill="none" fill-rule="evenodd">
        <path d="M133.403755,58.6985944 C133.403755,76.9272219 118.612314,91.7044209 100.367018,91.7044209 C82.1209508,91.7044209 67.3295095,76.9272219 67.3295095,58.6985944 C67.3295095,40.4699668 82.1209508,25.6927679 100.367018,25.6927679 C118.612314,25.6927679 133.403755,40.4699668 133.403755,58.6985944 Z" id="Fill-1" fill="#2a2b30" class="theme-fill-shade-1" style="fill: rgb(42, 43, 48);"></path>
        <path d="M100.976839,16.0284597 C98.9276547,16.0284597 97.2693419,14.3728526 97.2693419,12.3258781 L97.2693419,7.70188827 C97.2693419,5.65568418 98.9276547,4.00007704 100.976839,4.00007704 C103.022169,4.00007704 104.680482,5.65568418 104.680482,7.70188827 L104.680482,12.3258781 C104.680482,14.3728526 103.022169,16.0284597 100.976839,16.0284597" id="Fill-11" fill="#6366f1" class="theme-fill-shade-2" style="fill: rgb(99, 102, 241);"></path>
        <path d="M100.802219,112.404672 C98.7530346,112.404672 97.0947218,110.745983 97.0947218,108.70209 L97.0947218,104.078101 C97.0947218,102.031896 98.7530346,100.376289 100.802219,100.376289 C102.847549,100.376289 104.505861,102.031896 104.505861,104.078101 L104.505861,108.70209 C104.505861,110.745983 102.847549,112.404672 100.802219,112.404672" id="Fill-13" fill="#22d3ee"></path>
        <path d="M130.73519,28.2285663 C129.287346,26.7832806 129.287346,24.4381582 130.73519,22.9928724 L134.010184,19.7217194 C135.458028,18.2764337 137.806341,18.2764337 139.251872,19.7217194 C140.701257,21.1670051 140.701257,23.5121276 139.251872,24.9574133 L135.974564,28.2285663 C134.527492,29.673852 132.178408,29.673852 130.73519,28.2285663" id="Fill-15" fill="#2a2b30" class="theme-fill-shade-1" style="fill: rgb(42, 43, 48);"></path>
        <path d="M62.1945218,96.4871918 C60.7466782,95.0457582 60.7466782,92.7006357 62.1945218,91.25535 L65.4695162,87.9841969 C66.9173598,86.5389112 69.2656726,86.5389112 70.7135162,87.9841969 C72.1605888,89.4310235 72.1605888,91.7746051 70.7135162,93.2198908 L67.4377508,96.4871918 C65.9899073,97.9363296 63.6415944,97.9363296 62.1945218,96.4871918" id="Fill-17" fill="#6366f1" class="theme-fill-shade-2" style="fill: rgb(99, 102, 241);"></path>
        <path d="M62.1206648,19.7217194 C63.5677374,18.2764337 65.9160503,18.2764337 67.3638939,19.7217194 L70.6396592,22.9928724 C72.0867318,24.4381582 72.0867318,26.7832806 70.6396592,28.2285663 C69.1918156,29.673852 66.8435028,29.673852 65.3956592,28.2285663 L62.1206648,24.9574133 C60.6728212,23.5121276 60.6728212,21.1670051 62.1206648,19.7217194" id="Fill-19" fill="#ec4899" class="theme-fill-shade-3" style="fill: rgb(236, 72, 153);"></path>
        <path d="M15.0370693,90.1019719 C15.0370693,92.1489464 13.3802983,93.8060944 11.3318849,93.8060944 L6.70387374,93.8060944 C4.65623128,93.8060944 3.00023128,92.1489464 3.00023128,90.1019719 C3.00023128,88.0573087 4.65623128,86.4001607 6.70387374,86.4001607 L11.3318849,86.4001607 C13.3802983,86.4001607 15.0370693,88.0573087 15.0370693,90.1019719" id="Fill-21" fill="#6366f1" class="theme-fill-shade-2" style="fill: rgb(99, 102, 241);"></path>
        <path d="M27.245752,60.364525 C25.7994503,61.8105811 23.4526793,61.8105811 22.0063777,60.364525 L18.7329251,57.0910607 C17.2858525,55.6442342 17.2858525,53.2975709 18.7329251,51.8530556 C20.1792268,50.4046883 22.5259978,50.4046883 23.9722994,51.8530556 L27.245752,55.1280607 C28.6920536,56.5748872 28.6920536,58.9215505 27.245752,60.364525" id="Fill-23" fill="#2a2b30" class="theme-fill-shade-1" style="fill: rgb(42, 43, 48);"></path>
        <path d="M18.7329251,128.930852 C17.2858525,127.484025 17.2858525,125.137362 18.7329251,123.690535 L22.0063777,120.417841 C23.4526793,118.971015 25.7994503,118.971015 27.245752,120.417841 C28.6920536,121.863897 28.6920536,124.210561 27.245752,125.657387 L23.9722994,128.930852 C22.5259978,130.376908 20.1792268,130.376908 18.7329251,128.930852" id="Fill-25" fill="#ec4899" class="theme-fill-shade-3" style="fill: rgb(236, 72, 153);"></path>
        <path d="M57.9647832,56.5094796 C76.2100793,56.5094796 91.0015207,71.2866786 91.0015207,89.5153061 C91.0015207,107.743934 76.2100793,122.521133 57.9647832,122.521133 C39.7187162,122.521133 24.9272749,107.743934 24.9272749,89.5153061 C24.9272749,71.2866786 39.7187162,56.5094796 57.9647832,56.5094796" id="Fill-27" fill="#2a2b30" class="theme-fill-shade-1" style="fill: rgb(42, 43, 48);"></path>
        <path d="M99.7956901,43.3200064 C85.456577,43.3200064 76.9999619,57.442262 76.9999619,57.442262 C76.9999619,57.442262 85.456577,71.5652792 99.7956901,71.5652792 C114.134803,71.5652792 122.591418,57.442262 122.591418,57.442262 C122.591418,57.442262 114.134803,43.3200064 99.7956901,43.3200064" id="Path" fill="#FFFFFF"></path>
        <path d="M99.7956901,66.8322155 C94.6051385,66.8322155 90.3970366,62.6281794 90.3970366,57.442262 C90.3970366,52.2567254 94.6051385,48.0530702 99.7956901,48.0530702 C104.986242,48.0530702 109.194344,52.2567254 109.194344,57.442262 C109.194344,62.6281794 104.986242,66.8322155 99.7956901,66.8322155" id="Path" fill="#2a2b30" class="theme-fill-shade-1" style="fill: rgb(42, 43, 48);"></path>
        <path d="M100.367018,88.8666224 C118.612314,88.8666224 133.403755,103.643821 133.403755,121.872449 C133.403755,140.101077 118.612314,154.878276 100.367018,154.878276 C82.1209508,154.878276 67.3295095,140.101077 67.3295095,121.872449 C67.3295095,103.643821 82.1209508,88.8666224 100.367018,88.8666224" id="Fill-37" fill="#2a2b30" class="theme-fill-shade-1" style="fill: rgb(42, 43, 48);"></path>
        <path d="M99.2333333,54.4473684 C100.927453,54.4473684 102.3,55.8144251 102.3,57.5 C102.3,59.1863663 100.927453,60.5526316 99.2333333,60.5526316 C97.5396111,60.5526316 96.1666667,59.1863663 96.1666667,57.5 C96.1666667,55.8144251 97.5396111,54.4473684 99.2333333,54.4473684" id="Fill-4" fill="#FFFFFF"></path>
        <path d="M56.7956901,73.3200064 C42.456577,73.3200064 33.9999619,87.442262 33.9999619,87.442262 C33.9999619,87.442262 42.456577,101.565279 56.7956901,101.565279 C71.1348032,101.565279 79.5914183,87.442262 79.5914183,87.442262 C79.5914183,87.442262 71.1348032,73.3200064 56.7956901,73.3200064" id="Path" fill="#FFFFFF"></path>
        <path d="M56.7956901,96.8322155 C51.6051385,96.8322155 47.3970366,92.6281794 47.3970366,87.442262 C47.3970366,82.2567254 51.6051385,78.0530702 56.7956901,78.0530702 C61.9862417,78.0530702 66.1943436,82.2567254 66.1943436,87.442262 C66.1943436,92.6281794 61.9862417,96.8322155 56.7956901,96.8322155" id="Path" fill="#2a2b30" class="theme-fill-shade-1" style="fill: rgb(42, 43, 48);"></path>
        <path d="M56.5833333,83.7505721 C58.4708036,83.7505721 60,85.2736515 60,87.1516018 C60,89.0304338 58.4708036,90.5526316 56.5833333,90.5526316 C54.6963059,90.5526316 53.1666667,89.0304338 53.1666667,87.1516018 C53.1666667,85.2736515 54.6963059,83.7505721 56.5833333,83.7505721" id="Fill-4" fill="#FFFFFF"></path>
        <path d="M76.9999619,121.442262 C76.9999619,121.442262 85.456577,135.565279 99.7956901,135.565279 C114.134803,135.565279 122.591418,121.442262 122.591418,121.442262 C122.591418,121.442262 114.134803,107.320006 99.7956901,107.320006 C85.456577,107.320006 76.9999619,121.442262 76.9999619,121.442262 Z" id="Path" fill="#FFFFFF"></path>
        <path d="M99.7956901,130.832216 C94.6051385,130.832216 90.3970366,126.628179 90.3970366,121.442262 C90.3970366,116.256725 94.6051385,112.05307 99.7956901,112.05307 C104.986242,112.05307 109.194344,116.256725 109.194344,121.442262 C109.194344,126.628179 104.986242,130.832216 99.7956901,130.832216" id="Path" fill="#2a2b30" class="theme-fill-shade-1" style="fill: rgb(42, 43, 48);"></path>
        <path d="M103.3,121.276316 C103.3,123.086252 101.826878,124.552632 100.008621,124.552632 C98.1907896,124.552632 96.7172414,123.086252 96.7172414,121.276316 C96.7172414,119.467229 98.1907896,118 100.008621,118 C101.826878,118 103.3,119.467229 103.3,121.276316 Z" id="Fill-4" fill="#FFFFFF"></path>
        <path d="M190.107985,178.664858 C183.67331,181.887033 172.596089,184.015112 160.000966,184.015112 C147.403911,184.015112 136.324759,181.887033 129.890084,178.664858 C126.172572,176.799282 124,174.571011 124,172.172414 L124,185.155298 C124,191.695834 140.115656,197 160.000966,197 C179.882413,197 196,191.695834 196,185.155298 L196,172.172414 C196,174.571011 193.827428,176.799282 190.107985,178.664858" id="Fill-13" fill="#2a2b30" class="theme-fill-shade-1" style="fill: rgb(42, 43, 48);"></path>
        <path d="M124,172.792106 C124,175.180456 126.172514,177.399208 129.891857,179.256814 C136.32636,182.465224 147.405214,184.586207 160.001931,184.586207 C172.594786,184.586207 183.67364,182.465224 190.108143,179.256814 C193.827486,177.399208 196,175.180456 196,172.792106 C196,166.279511 179.882845,161 160.001931,161 C140.117155,161 124,166.279511 124,172.792106 Z" id="Fill-16" fill="#6366f1" class="theme-fill-shade-2" style="fill: rgb(99, 102, 241);"></path>
        <path d="M190.107985,159.664858 C183.67331,162.887033 172.596089,165.015112 160.000966,165.015112 C147.403911,165.015112 136.324759,162.887033 129.890084,159.664858 C126.172572,157.799282 124,155.571011 124,153.172414 L124,166.155298 C124,172.695834 140.115656,178 160.000966,178 C179.882413,178 196,172.695834 196,166.155298 L196,153.172414 C196,155.571011 193.827428,157.799282 190.107985,159.664858" id="Fill-13-Copy" fill="#2a2b30" class="theme-fill-shade-1" style="fill: rgb(42, 43, 48);"></path>
        <path d="M124,153.792106 C124,156.180456 126.172514,158.399208 129.891857,160.256814 C136.32636,163.465224 147.405214,165.586207 160.001931,165.586207 C172.594786,165.586207 183.67364,163.465224 190.108143,160.256814 C193.827486,158.399208 196,156.180456 196,153.792106 C196,147.279511 179.882845,142 160.001931,142 C140.117155,142 124,147.279511 124,153.792106 Z" id="Fill-16-Copy" fill="#6366f1" class="theme-fill-shade-2" style="fill: rgb(99, 102, 241);"></path>
        <path d="M189.768833,139.635302 C183.377478,142.829575 172.374834,144.939225 159.864505,144.939225 C147.352257,144.939225 136.347695,142.829575 129.95634,139.635302 C126.263855,137.785882 124.10591,135.576907 124.10591,133.199081 L124.10591,146.069536 C124.10591,152.553433 140.11307,157.811667 159.864505,157.811667 C179.612103,157.811667 195.621181,152.553433 195.621181,146.069536 L195.621181,133.199081 C195.621181,135.576907 193.463236,137.785882 189.768833,139.635302" id="Fill-13" fill="#2a2b30" class="theme-fill-shade-1" style="fill: rgb(42, 43, 48);"></path>
        <path d="M159.864888,122.252738 C140.113453,122.252738 124.104375,127.508985 124.104375,133.992882 C124.104375,136.370708 126.262321,138.579682 129.956723,140.429103 C136.348078,143.623375 147.352641,145.735012 159.864888,145.735012 C172.373299,145.735012 183.377862,143.623375 189.769217,140.429103 C193.463619,138.579682 195.621565,136.370708 195.621565,133.992882 C195.621565,127.508985 179.612487,122.252738 159.864888,122.252738" id="Fill-16" fill="#f97316" class="theme-fill-shade-4" style="fill: rgb(249, 115, 22);"></path>
    </g>
</svg>