<svg width="200" height="200" viewBox="0 0 200 200" xmlns="http://www.w3.org/2000/svg">
  <g stroke="none" stroke-width="1" fill="none" fill-rule="evenodd">
    <path d="M21,99.9971621 C21,143.633473 56.5958782,179 100.500952,179 C144.40793,179 180,143.633473 180,99.9971621 C180,56.3759864 144.40793,21 100.500952,21 C56.5958782,21 21,56.3759864 21,99.9971621 Z" fill="#22D3EE"/>
    <g transform="translate(134, 131)">
      <path d="M58.7626532,50.5733854 C53.0429418,53.4491774 43.1965239,55.3484877 32.0008583,55.3484877 C20.8034761,55.3484877 10.9553416,53.4491774 5.23563018,50.5733854 C1.93117507,48.9083591 0,46.9196274 0,44.7788793 L0,56.3661032 C0,62.2035316 14.3250275,66.9375 32.0008583,66.9375 C49.6732559,66.9375 64,62.2035316 64,56.3661032 L64,44.7788793 C64,46.9196274 62.0688249,48.9083591 58.7626532,50.5733854" fill="#2A2B30"/>
      <path d="M0,45.4858337 C0,47.6174364 1.93112327,49.5976722 5.23720631,51.2555854 C10.9567643,54.1190918 20.8046347,56.012069 32.0017166,56.012069 C43.1953653,56.012069 53.0432357,54.1190918 58.7627937,51.2555854 C62.0688767,49.5976722 64,47.6174364 64,45.4858337 C64,39.6733432 49.6736402,34.9613793 32.0017166,34.9613793 C14.3263598,34.9613793 0,39.6733432 0,45.4858337 Z" fill="#6366F1"/>
      <path d="M58.7626532,33.6158854 C53.0429418,36.4916774 43.1965239,38.3909877 32.0008583,38.3909877 C20.8034761,38.3909877 10.9553416,36.4916774 5.23563018,33.6158854 C1.93117507,31.9508591 0,29.9621274 0,27.8213793 L0,39.4086032 C0,45.2460316 14.3250275,49.98 32.0008583,49.98 C49.6732559,49.98 64,45.2460316 64,39.4086032 L64,27.8213793 C64,29.9621274 62.0688249,31.9508591 58.7626532,33.6158854" fill="#2A2B30"/>
      <path d="M0,28.5283337 C0,30.6599364 1.93112327,32.6401722 5.23720631,34.2980854 C10.9567643,37.1615918 20.8046347,39.054569 32.0017166,39.054569 C43.1953653,39.054569 53.0432357,37.1615918 58.7627937,34.2980854 C62.0688767,32.6401722 64,30.6599364 64,28.5283337 C64,22.7158432 49.6736402,18.0038793 32.0017166,18.0038793 C14.3263598,18.0038793 0,22.7158432 0,28.5283337 Z" fill="#6366F1"/>
      <path d="M58.3670429,15.7157065 C52.6858386,18.5665948 42.9057101,20.4494576 31.7854176,20.4494576 C20.66342,20.4494576 10.8815865,18.5665948 5.20038213,15.7157065 C1.91817374,14.0650989 0,12.0935891 0,9.97137931 L0,21.4582607 C0,27.2451384 14.2285865,31.9381119 31.7854176,31.9381119 C49.3388386,31.9381119 63.5691301,27.2451384 63.5691301,21.4582607 L63.5691301,9.97137931 C63.5691301,12.0935891 61.6509564,14.0650989 58.3670429,15.7157065" fill="#2A2B30"/>
      <path d="M31.7871226,0.15387931 C14.2302915,0.15387931 0,4.84507983 0,10.6319576 C0,12.7541673 1.91817374,14.7256771 5.20208717,16.3762847 C10.8832915,19.227173 20.665125,21.1118087 31.7871226,21.1118087 C42.9057101,21.1118087 52.6875436,19.227173 58.368748,16.3762847 C61.6526614,14.7256771 63.5708351,12.7541673 63.5708351,10.6319576 C63.5708351,4.84507983 49.3405436,0.15387931 31.7871226,0.15387931" fill="#F97316"/>
    </g>
    <circle fill="#FFFFFF" cx="63" cy="100" r="10"/>
    <circle fill="#FFFFFF" cx="100" cy="100" r="10"/>
    <circle fill="#FFFFFF" cx="138" cy="100" r="10"/>
    <path d="M36.7041349,146 C24.3983316,166.666667 19.3246743,177 21.483163,177 C23.6416516,177 37.4805973,173.613297 63,166.839891 L36.7041349,146 Z" fill="#22D3EE"/>
  </g>
</svg>
