<?xml version="1.0" encoding="UTF-8"?>
<svg width="200px" height="200px" viewBox="0 0 200 200" version="1.1" xmlns="http://www.w3.org/2000/svg" xmlns:xlink="http://www.w3.org/1999/xlink">
    <!-- Generator: Sketch 51.3 (57544) - http://www.bohemiancoding.com/sketch -->
    <title>Artboard 2</title>
    <desc>Created with Sketch.</desc>
    <defs></defs>
    <g id="Artboard-2" stroke="none" stroke-width="1" fill="none" fill-rule="evenodd">
        <path d="M96.5030516,24 C92.908216,24 90,21.1096187 90,17.5368284 L90,9.46317158 C90,5.89038128 92.908216,3 96.5030516,3 C100.091784,3 103,5.89038128 103,9.46317158 L103,17.5368284 C103,21.1096187 100.091784,24 96.5030516,24" id="Fill-3" fill="#6366f1" class="theme-fill-shade-2" style="fill: rgb(99, 102, 241);"></path>
        <path d="M90,187.536828 L90,179.463172 C90,175.890381 92.908216,173 96.5030516,173 C100.091784,173 103,175.890381 103,179.463172 L103,187.536828 C103,191.109619 100.091784,194 96.5030516,194 C92.908216,194 90,191.109619 90,187.536828 Z" id="Fill-3-Copy" fill="#ec4899" class="theme-fill-shade-3" style="fill: rgb(236, 72, 153);"></path>
        <path d="M146.827902,44.1721725 C144.390699,41.7350692 144.390699,37.7806347 146.827902,35.3435313 L152.34383,29.8278275 C154.781033,27.3907242 158.735628,27.3907242 161.169901,29.8278275 C163.610033,32.2649308 163.610033,36.2193653 161.169901,38.6564687 L155.651044,44.1721725 C153.213841,46.6092758 149.259246,46.6092758 146.827902,44.1721725" id="Fill-7" fill="#2a2b30" class="theme-fill-shade-1" style="fill: rgb(42, 43, 48);"></path>
        <path d="M29.8278275,161.16763 C27.3907242,158.736187 27.3907242,154.781431 29.8278275,152.344129 L35.3435313,146.827976 C37.7806347,144.390675 41.7350692,144.390675 44.1721725,146.827976 C46.6092758,149.268207 46.6092758,153.220034 44.1721725,155.657336 L38.6564687,161.16763 C36.2193653,163.61079 32.2649308,163.61079 29.8278275,161.16763" id="Fill-9" fill="#6366f1" class="theme-fill-shade-2" style="fill: rgb(99, 102, 241);"></path>
        <path d="M3.00000951,96.5 C2.99394366,92.9068512 5.89038948,90 9.46317816,90 L17.5368313,90 C21.1035542,90 24,92.9129517 24,96.5 C23.9939341,100.087048 21.1035542,103 17.5368313,103 L9.46317816,103 C5.89342241,103 3.00000951,100.087048 3.00000951,96.5" id="Fill-13" fill="#2a2b30" class="theme-fill-shade-1" style="fill: rgb(42, 43, 48);"></path>
        <path d="M29.8278275,29.8278275 C32.2649308,27.3907242 36.2193653,27.3907242 38.6564687,29.8278275 L44.1721725,35.3435313 C46.6092758,37.7806347 46.6092758,41.7350692 44.1721725,44.1721725 C41.7350692,46.6092758 37.7806347,46.6092758 35.3435313,44.1721725 L29.8278275,38.6564687 C27.3907242,36.2193653 27.3907242,32.2649308 29.8278275,29.8278275" id="Fill-18" fill="#ec4899" class="theme-fill-shade-3" style="fill: rgb(236, 72, 153);"></path>
        <path d="M155.823252,114.988861 C150.339702,117.703785 140.899832,119.49685 130.166425,119.49685 C119.431371,119.49685 109.989857,117.703785 104.506306,114.988861 C101.338289,113.416974 99.4868501,111.539489 99.4868501,109.518491 L99.4868501,120.457542 C99.4868501,125.968433 113.220411,130.437589 130.166425,130.437589 C147.109147,130.437589 160.844354,125.968433 160.844354,120.457542 L160.844354,109.518491 C160.844354,111.539489 158.992915,113.416974 155.823252,114.988861" id="Fill-13" fill="#2a2b30" class="theme-fill-shade-1" style="fill: rgb(42, 43, 48);"></path>
        <path d="M130.166754,100.214811 C113.220741,100.214811 99.4855335,104.682279 99.4855335,110.19317 C99.4855335,112.214168 101.336972,114.091653 104.506635,115.66354 C109.990186,118.378464 119.4317,120.173218 130.166754,120.173218 C140.898516,120.173218 150.340031,118.378464 155.823581,115.66354 C158.993244,114.091653 160.844683,112.214168 160.844683,110.19317 C160.844683,104.682279 147.109476,100.214811 130.166754,100.214811" id="Fill-16" fill="#6366f1" class="theme-fill-shade-2" style="fill: rgb(99, 102, 241);"></path>
        <path d="M95.8232517,119.988861 C90.3397015,122.703785 80.8998324,124.49685 70.1664247,124.49685 C59.4313713,124.49685 49.9898565,122.703785 44.5063063,119.988861 C41.3382889,118.416974 39.4868501,116.539489 39.4868501,114.518491 L39.4868501,125.457542 C39.4868501,130.968433 53.2204114,135.437589 70.1664247,135.437589 C87.1091466,135.437589 100.844354,130.968433 100.844354,125.457542 L100.844354,114.518491 C100.844354,116.539489 98.9929149,118.416974 95.8232517,119.988861" id="Fill-13" fill="#2a2b30" class="theme-fill-shade-1" style="fill: rgb(42, 43, 48);"></path>
        <path d="M70.1667539,105.214811 C53.2207406,105.214811 39.4855335,109.682279 39.4855335,115.19317 C39.4855335,117.214168 41.3369723,119.091653 44.5066355,120.66354 C49.9901856,123.378464 59.4317005,125.173218 70.1667539,125.173218 C80.8985158,125.173218 90.3400307,123.378464 95.8235809,120.66354 C98.993244,119.091653 100.844683,117.214168 100.844683,115.19317 C100.844683,109.682279 87.1094757,105.214811 70.1667539,105.214811" id="Fill-16" fill="#6366f1" class="theme-fill-shade-2" style="fill: rgb(99, 102, 241);"></path>
        <path d="M126.823252,137.988861 C121.339702,140.703785 111.899832,142.49685 101.166425,142.49685 C90.4313713,142.49685 80.9898565,140.703785 75.5063063,137.988861 C72.3382889,136.416974 70.4868501,134.539489 70.4868501,132.518491 L70.4868501,143.457542 C70.4868501,148.968433 84.2204114,153.437589 101.166425,153.437589 C118.109147,153.437589 131.844354,148.968433 131.844354,143.457542 L131.844354,132.518491 C131.844354,134.539489 129.992915,136.416974 126.823252,137.988861" id="Fill-13" fill="#2a2b30" class="theme-fill-shade-1" style="fill: rgb(42, 43, 48);"></path>
        <path d="M101.166754,123.214811 C84.2207406,123.214811 70.4855335,127.682279 70.4855335,133.19317 C70.4855335,135.214168 72.3369723,137.091653 75.5066355,138.66354 C80.9901856,141.378464 90.4317005,143.173218 101.166754,143.173218 C111.898516,143.173218 121.340031,141.378464 126.823581,138.66354 C129.993244,137.091653 131.844683,135.214168 131.844683,133.19317 C131.844683,127.682279 118.109476,123.214811 101.166754,123.214811" id="Fill-16" fill="#6366f1" class="theme-fill-shade-2" style="fill: rgb(99, 102, 241);"></path>
        <path d="M155.823252,97.9888607 C150.339702,100.703785 140.899832,102.49685 130.166425,102.49685 C119.431371,102.49685 109.989857,100.703785 104.506306,97.9888607 C101.338289,96.4169737 99.4868501,94.5394888 99.4868501,92.5184912 L99.4868501,103.457542 C99.4868501,108.968433 113.220411,113.437589 130.166425,113.437589 C147.109147,113.437589 160.844354,108.968433 160.844354,103.457542 L160.844354,92.5184912 C160.844354,94.5394888 158.992915,96.4169737 155.823252,97.9888607" id="Fill-13" fill="#2a2b30" class="theme-fill-shade-1" style="fill: rgb(42, 43, 48);"></path>
        <path d="M130.166754,83.2148109 C113.220741,83.2148109 99.4855335,87.6822793 99.4855335,93.1931701 C99.4855335,95.2141677 101.336972,97.0916526 104.506635,98.6635396 C109.990186,101.378464 119.4317,103.173218 130.166754,103.173218 C140.898516,103.173218 150.340031,101.378464 155.823581,98.6635396 C158.993244,97.0916526 160.844683,95.2141677 160.844683,93.1931701 C160.844683,87.6822793 147.109476,83.2148109 130.166754,83.2148109" id="Fill-16" fill="#6366f1" class="theme-fill-shade-2" style="fill: rgb(99, 102, 241);"></path>
        <path d="M95.8232517,103.505349 C90.3397015,106.132695 80.8998324,107.86792 70.1664247,107.86792 C59.4313713,107.86792 49.9898565,106.132695 44.5063063,103.505349 C41.3382889,101.984168 39.4868501,100.167247 39.4868501,98.2114431 L39.4868501,108.797621 C39.4868501,114.130741 53.2204114,118.455732 70.1664247,118.455732 C87.1091466,118.455732 100.844354,114.130741 100.844354,108.797621 L100.844354,98.2114431 C100.844354,100.167247 98.9929149,101.984168 95.8232517,103.505349" id="Fill-13" fill="#2a2b30" class="theme-fill-shade-1" style="fill: rgb(42, 43, 48);"></path>
        <path d="M70.1667539,89.2078815 C53.2207406,89.2078815 39.4855335,93.531238 39.4855335,98.8643582 C39.4855335,100.820162 41.3369723,102.637083 44.5066355,104.158264 C49.9901856,106.78561 59.4317005,108.522469 70.1667539,108.522469 C80.8985158,108.522469 90.3400307,106.78561 95.8235809,104.158264 C98.993244,102.637083 100.844683,100.820162 100.844683,98.8643582 C100.844683,93.531238 87.1094757,89.2078815 70.1667539,89.2078815" id="Fill-16" fill="#6366f1" class="theme-fill-shade-2" style="fill: rgb(99, 102, 241);"></path>
        <path d="M126.823252,121.988861 C121.339702,124.703785 111.899832,126.49685 101.166425,126.49685 C90.4313713,126.49685 80.9898565,124.703785 75.5063063,121.988861 C72.3382889,120.416974 70.4868501,118.539489 70.4868501,116.518491 L70.4868501,127.457542 C70.4868501,132.968433 84.2204114,137.437589 101.166425,137.437589 C118.109147,137.437589 131.844354,132.968433 131.844354,127.457542 L131.844354,116.518491 C131.844354,118.539489 129.992915,120.416974 126.823252,121.988861" id="Fill-13" fill="#2a2b30" class="theme-fill-shade-1" style="fill: rgb(42, 43, 48);"></path>
        <path d="M101.166754,107.214811 C84.2207406,107.214811 70.4855335,111.682279 70.4855335,117.19317 C70.4855335,119.214168 72.3369723,121.091653 75.5066355,122.66354 C80.9901856,125.378464 90.4317005,127.173218 101.166754,127.173218 C111.898516,127.173218 121.340031,125.378464 126.823581,122.66354 C129.993244,121.091653 131.844683,119.214168 131.844683,117.19317 C131.844683,111.682279 118.109476,107.214811 101.166754,107.214811" id="Fill-16" fill="#f97316" class="theme-fill-shade-4" style="fill: rgb(249, 115, 22);"></path>
        <path d="M155.823252,81.9888607 C150.339702,84.7037849 140.899832,86.4968504 130.166425,86.4968504 C119.431371,86.4968504 109.989857,84.7037849 104.506306,81.9888607 C101.338289,80.4169737 99.4868501,78.5394888 99.4868501,76.5184912 L99.4868501,87.4575419 C99.4868501,92.9684327 113.220411,97.4375895 130.166425,97.4375895 C147.109147,97.4375895 160.844354,92.9684327 160.844354,87.4575419 L160.844354,76.5184912 C160.844354,78.5394888 158.992915,80.4169737 155.823252,81.9888607" id="Fill-13" fill="#2a2b30" class="theme-fill-shade-1" style="fill: rgb(42, 43, 48);"></path>
        <path d="M130.166754,67.2148109 C113.220741,67.2148109 99.4855335,71.6822793 99.4855335,77.1931701 C99.4855335,79.2141677 101.336972,81.0916526 104.506635,82.6635396 C109.990186,85.3784638 119.4317,87.1732177 130.166754,87.1732177 C140.898516,87.1732177 150.340031,85.3784638 155.823581,82.6635396 C158.993244,81.0916526 160.844683,79.2141677 160.844683,77.1931701 C160.844683,71.6822793 147.109476,67.2148109 130.166754,67.2148109" id="Fill-16" fill="#6366f1" class="theme-fill-shade-2" style="fill: rgb(99, 102, 241);"></path>
        <path d="M95.8232517,87.9888607 C90.3397015,90.7037849 80.8998324,92.4968504 70.1664247,92.4968504 C59.4313713,92.4968504 49.9898565,90.7037849 44.5063063,87.9888607 C41.3382889,86.4169737 39.4868501,84.5394888 39.4868501,82.5184912 L39.4868501,93.4575419 C39.4868501,98.9684327 53.2204114,103.437589 70.1664247,103.437589 C87.1091466,103.437589 100.844354,98.9684327 100.844354,93.4575419 L100.844354,82.5184912 C100.844354,84.5394888 98.9929149,86.4169737 95.8232517,87.9888607" id="Fill-13" fill="#2a2b30" class="theme-fill-shade-1" style="fill: rgb(42, 43, 48);"></path>
        <path d="M70.1667539,73.2148109 C53.2207406,73.2148109 39.4855335,77.6822793 39.4855335,83.1931701 C39.4855335,85.2141677 41.3369723,87.0916526 44.5066355,88.6635396 C49.9901856,91.3784638 59.4317005,93.1732177 70.1667539,93.1732177 C80.8985158,93.1732177 90.3400307,91.3784638 95.8235809,88.6635396 C98.993244,87.0916526 100.844683,85.2141677 100.844683,83.1931701 C100.844683,77.6822793 87.1094757,73.2148109 70.1667539,73.2148109" id="Fill-16" fill="#f97316" class="theme-fill-shade-4" style="fill: rgb(249, 115, 22);"></path>
        <path d="M155.823252,65.9888607 C150.339702,68.7037849 140.899832,70.4968504 130.166425,70.4968504 C119.431371,70.4968504 109.989857,68.7037849 104.506306,65.9888607 C101.338289,64.4169737 99.4868501,62.5394888 99.4868501,60.5184912 L99.4868501,71.4575419 C99.4868501,76.9684327 113.220411,81.4375895 130.166425,81.4375895 C147.109147,81.4375895 160.844354,76.9684327 160.844354,71.4575419 L160.844354,60.5184912 C160.844354,62.5394888 158.992915,64.4169737 155.823252,65.9888607" id="Fill-13" fill="#2a2b30" class="theme-fill-shade-1" style="fill: rgb(42, 43, 48);"></path>
        <path d="M130.166754,51.2148109 C113.220741,51.2148109 99.4855335,55.6822793 99.4855335,61.1931701 C99.4855335,63.2141677 101.336972,65.0916526 104.506635,66.6635396 C109.990186,69.3784638 119.4317,71.1732177 130.166754,71.1732177 C140.898516,71.1732177 150.340031,69.3784638 155.823581,66.6635396 C158.993244,65.0916526 160.844683,63.2141677 160.844683,61.1931701 C160.844683,55.6822793 147.109476,51.2148109 130.166754,51.2148109" id="Fill-16" fill="#f97316" class="theme-fill-shade-4" style="fill: rgb(249, 115, 22);"></path>
    </g>
</svg>