<svg width="200" height="200" viewBox="0 0 200 200" xmlns="http://www.w3.org/2000/svg">
  <g stroke="none" stroke-width="1" fill="none" fill-rule="evenodd">
    <path d="M100.001006,16 C53.6107392,16 16,53.6149729 16,99.9969824 C16,146.395086 53.6107392,184 100.001006,184 C146.393284,184 184,146.395086 184,99.9969824 C184,53.6149729 146.393284,16 100.001006,16" fill="#2A2B30"/>
    <path d="M78.0553334,129.015345 L78.0553334,128.620048 L78.0553334,72.6730427 C78.0553334,72.6730427 76.4560483,59.1314458 90.4533947,68.0274113 C104.44894,76.9233769 135.141526,93.2320536 135.141526,93.2320536 C135.141526,93.2320536 146.538233,98.0753334 137.540454,103.51334 C128.542674,108.949565 89.8536628,130.199456 89.8536628,130.199456 C89.8536628,130.199456 78.0553334,139.492499 78.0553334,129.015345" fill="#FFFFFF"/>
    <g transform="translate(107.166667, 108)">
      <path d="M44.99986,0 C69.8528739,0 90,20.1471261 90,45.00014 C90,69.853154 69.8528739,90.0002801 44.99986,90.0002801 C20.1471261,90.0002801 0,69.853154 0,45.00014 C0,20.1471261 20.1471261,0 44.99986,0" fill="#2A2B30"/>
      <path d="M45,9 C64.8819743,9 81,25.1178245 81,44.9998704 C81,64.8821755 64.8819743,81 45,81 C25.1177665,81 9,64.8821755 9,44.9998704 C9,25.1178245 25.1177665,9 45,9" fill="#FFFFFF"/>
      <path d="M45.5,45 C46.3284271,45 47,45.6715729 47,46.5 L47,63.5 C47,64.3284271 46.3284271,65 45.5,65 C44.6715729,65 44,64.3284271 44,63.5 L44,46.5 C44,45.6715729 44.6715729,45 45.5,45 Z" fill="#2A2B30"/>
      <path d="M71,45.5 C71,46.3284271 70.3284271,47 69.5,47 L47.5,47 C46.6715729,47 46,46.3284271 46,45.5 C46,44.6715729 46.6715729,44 47.5,44 L69.5,44 C70.3284271,44 71,44.6715729 71,45.5 Z" fill="#2A2B30"/>
      <polygon fill="#2A2B30" points="46 45.5324709 45.5324709 46 28 28.4675291 28.4675291 28"/>
      <path d="M28.5002926,27 C29.3288473,27 30,27.6710218 30,28.499415 C30,29.3278081 29.3288473,30 28.5002926,30 C27.6717379,30 27,29.3278081 27,28.499415 C27,27.6710218 27.6717379,27 28.5002926,27" fill="#2A2B30"/>
      <path d="M45.4998607,43 C46.8807176,43 48,44.1193448 48,45.5 C48,46.8809338 46.8807176,48 45.4998607,48 C44.1192824,48 43,46.8809338 43,45.5 C43,44.1193448 44.1192824,43 45.4998607,43 Z" stroke="#2A2B30" stroke-width="1.04166667" fill="#FFFFFF"/>
    </g>
  </g>
</svg>
