<svg width="200" height="200" viewBox="0 0 200 200" xmlns="http://www.w3.org/2000/svg">
  <g stroke="none" stroke-width="1" fill="none" fill-rule="evenodd">
    <ellipse fill="#F97316" cx="100" cy="174.088398" rx="74" ry="15.9116022"/>
    <path d="M99.5033557,166.075976 C99.5033557,171.599581 95.0285639,176.077348 89.5014926,176.077348 L88.6461584,176.077348 C83.1222819,176.077348 78.6442953,171.601145 78.6442953,166.075976 L78.6442953,124.364641 L120.362416,124.364641 L120.362416,166.075976 C120.362416,171.599581 115.887624,176.077348 110.360553,176.077348 L109.505219,176.077348 C103.981342,176.077348 99.5033557,171.601145 99.5033557,166.075976 Z" fill="#2A2B30"/>
    <ellipse fill="#2A2B30" cx="99.5033557" cy="31.3812155" rx="20.8590604" ry="21.3812155"/>
    <path d="M138.241611,93.5359116 C138.241611,72.1158069 121.120272,54.7513812 100.00003,54.7513812 C78.8797885,54.7513812 61.7584498,72.1158069 61.7584498,93.5359116 C61.6800246,93.5359116 137.870025,93.5359116 138.241611,93.5359116 Z" fill="#6366F1"/>
    <path d="M61.7583893,88.5524862 L138.241611,88.5524862 L138.241611,107.458564 C138.241611,116.795532 130.663673,124.364641 121.338662,124.364641 L78.6613377,124.364641 C69.326097,124.364641 61.7583893,116.797585 61.7583893,107.458564 L61.7583893,88.5524862 Z" fill="#6366F1"/>
    <path d="M183.52735,162.305635 C176.531743,168.14277 168.022627,170.658759 158,169.853602 C159.319493,159.584579 163.477043,151.5315 170.47265,145.694365 C177.468257,139.85723 185.977373,137.341241 196,138.146398 C194.680507,148.415421 190.522957,156.4685 183.52735,162.305635 Z" fill="#2A2B30"/>
    <path d="M169.104784,130.43467 C168.761646,139.539225 164.93768,147.546256 157.632885,154.455764 C150.884427,146.603872 147.681767,138.125649 148.024905,129.021094 C148.368043,119.916539 152.192009,111.909508 159.496803,105 C166.245261,112.851892 169.447922,121.330116 169.104784,130.43467 Z" fill="#2A2B30"/>
    <path d="M183.52735,189.305635 C176.531743,195.14277 168.022627,197.658759 158,196.853602 C159.319493,186.584579 163.477043,178.5315 170.47265,172.694365 C177.468257,166.85723 185.977373,164.341241 196,165.146398 C194.680507,175.415421 190.522957,183.4685 183.52735,189.305635 Z" fill="#2A2B30"/>
    <path d="M133.47265,162.305635 C126.477043,156.4685 122.319493,148.415421 121,138.146398 C131.022627,137.341241 139.531743,139.85723 146.52735,145.694365 C153.522957,151.5315 157.680507,159.584579 159,169.853602 C148.977373,170.658759 140.468257,168.14277 133.47265,162.305635 Z" fill="#2A2B30"/>
    <path d="M133.47265,189.305635 C126.477043,183.4685 122.319493,175.415421 121,165.146398 C131.022627,164.341241 139.531743,166.85723 146.52735,172.694365 C153.522957,178.5315 157.680507,186.584579 159,196.853602 C148.977373,197.658759 140.468257,195.14277 133.47265,189.305635 Z" fill="#2A2B30"/>
  </g>
</svg>
