<?xml version="1.0" encoding="UTF-8"?>
<svg width="200px" height="200px" viewBox="0 0 200 200" version="1.1" xmlns="http://www.w3.org/2000/svg" xmlns:xlink="http://www.w3.org/1999/xlink">
    <!-- Generator: Sketch 51.3 (57544) - http://www.bohemiancoding.com/sketch -->
    <title>Artboard 2</title>
    <desc>Created with Sketch.</desc>
    <defs></defs>
    <g id="Artboard-2" stroke="none" stroke-width="1" fill="none" fill-rule="evenodd">
        <path d="M92.6130653,16.9994746 L92.6130653,8.66886715 C92.6130653,4.98236997 95.6977753,2 99.5107745,2 C103.3173,2 106.40201,4.98236997 106.40201,8.66886715 L106.40201,16.9994746 C106.40201,20.6859717 103.3173,23.6683417 99.5107745,23.6683417 C95.6977753,23.6683417 92.6130653,20.6859717 92.6130653,16.9994746 Z" id="Fill-3" fill="#6366f1" class="theme-fill-shade-2" style="fill: rgb(99, 102, 241);"></path>
        <path d="M99.5107745,198 C95.6977753,198 92.6130653,195.011371 92.6130653,191.331133 L92.6130653,183.000525 C92.6130653,179.314028 95.6977753,176.331658 99.5107745,176.331658 C103.3173,176.331658 106.40201,179.314028 106.40201,183.000525 L106.40201,191.331133 C106.40201,195.011371 103.3173,198 99.5107745,198" id="Fill-5" fill="#22d3ee" class="theme-fill-shade-5" style="fill: rgb(34, 211, 238);"></path>
        <path d="M153.708927,45.3062301 C151.041748,42.63916 151.041748,38.3115823 153.708927,35.6445122 L159.745342,29.6083428 C162.41252,26.9412727 166.740274,26.9412727 169.404247,29.6083428 C172.074631,32.2754129 172.074631,36.6029905 169.404247,39.2700606 L163.364626,45.3062301 C160.697448,47.9733002 156.369694,47.9733002 153.708927,45.3062301" id="Fill-7" fill="#2a2b30" class="theme-fill-shade-1" style="fill: rgb(42, 43, 48);"></path>
        <path d="M28.6234181,170.386686 C25.9563481,167.72581 25.9563481,163.39788 28.6234181,160.730593 L34.6595876,154.693933 C37.3266577,152.026646 41.6542354,152.026646 44.3213055,154.693933 C46.9883756,157.364426 46.9883756,161.68915 44.3213055,164.356437 L38.285136,170.386686 C35.6180659,173.060385 31.2904882,173.060385 28.6234181,170.386686" id="Fill-9" fill="#6366f1" class="theme-fill-shade-2" style="fill: rgb(99, 102, 241);"></path>
        <path d="M2.00000981,99.5075377 C1.99375091,95.6963277 4.98237843,92.6130653 8.66887395,92.6130653 L16.9994776,92.6130653 C20.6797142,92.6130653 23.6683417,95.7027984 23.6683417,99.5075377 C23.6620828,103.312277 20.6797142,106.40201 16.9994776,106.40201 L8.66887395,106.40201 C4.98550788,106.40201 2.00000981,103.312277 2.00000981,99.5075377" id="Fill-13" fill="#2a2b30" class="theme-fill-shade-1" style="fill: rgb(42, 43, 48);"></path>
        <path d="M28.6234181,29.6083428 C31.2904882,26.9412727 35.6180659,26.9412727 38.285136,29.6083428 L44.3213055,35.6445122 C46.9883756,38.3115823 46.9883756,42.63916 44.3213055,45.3062301 C41.6542354,47.9733002 37.3266577,47.9733002 34.6595876,45.3062301 L28.6234181,39.2700606 C25.9563481,36.6029905 25.9563481,32.2754129 28.6234181,29.6083428" id="Fill-18" fill="#ec4899" class="theme-fill-shade-3" style="fill: rgb(236, 72, 153);"></path>
        <ellipse id="Oval-3" fill="#2a2b30" class="theme-fill-shade-1" cx="100" cy="102" rx="58" ry="57" style="fill: rgb(42, 43, 48);"></ellipse>
        <path d="M99.9999221,72.6620823 C70.4356849,72.6620823 52.9999221,101.880542 52.9999221,101.880542 C52.9999221,101.880542 70.4356849,131.100578 99.9999221,131.100578 C129.564159,131.100578 146.999922,101.880542 146.999922,101.880542 C146.999922,101.880542 129.564159,72.6620823 99.9999221,72.6620823" id="Path" fill="#FFFFFF"></path>
        <path d="M99.376553,120.454628 C88.8835096,120.454628 80.376553,111.947671 80.376553,101.453857 C80.376553,90.9608138 88.8835096,82.4546279 99.376553,82.4546279 C109.869596,82.4546279 118.376553,90.9608138 118.376553,101.453857 C118.376553,111.947671 109.869596,120.454628 99.376553,120.454628" id="Fill-1" fill="#2a2b30" class="theme-fill-shade-1" style="fill: rgb(42, 43, 48);"></path>
        <path d="M99.9263634,94.6401681 C103.793376,94.6401681 106.926363,97.7749704 106.926363,101.640168 C106.926363,105.50718 103.793376,108.640168 99.9263634,108.640168 C96.0602584,108.640168 92.9263634,105.50718 92.9263634,101.640168 C92.9263634,97.7749704 96.0602584,94.6401681 99.9263634,94.6401681" id="Fill-4" fill="#FFFFFF"></path>
    </g>
</svg>