<?xml version="1.0" encoding="UTF-8"?>
<svg width="200px" height="200px" viewBox="0 0 200 200" version="1.1" xmlns="http://www.w3.org/2000/svg" xmlns:xlink="http://www.w3.org/1999/xlink">
    <!-- Generator: Sketch 51.3 (57544) - http://www.bohemiancoding.com/sketch -->
    <title>Artboard 2</title>
    <desc>Created with Sketch.</desc>
    <defs></defs>
    <g id="Artboard-2" stroke="none" stroke-width="1" fill="none" fill-rule="evenodd">
        <path d="M41,62 C29.9543058,62 21,70.9548023 21,82 C21,93.0460538 29.9543058,102 41,102 C52.0465729,102 61,93.0460538 61,82 C61,70.9548023 52.0465729,62 41,62 Z" id="Fill-1-Copy" fill="#22d3ee" class="theme-fill-shade-5" style="fill: rgb(34, 211, 238);"></path>
        <path d="M26.0767077,109 C15.2996095,109 5,117.927663 5,128.837409 L5,131 L77,131 L77,128.837409 C77,117.927663 66.7003905,109 55.9232923,109 L26.0767077,109 Z" id="Fill-4-Copy-4" fill="#22d3ee" class="theme-fill-shade-5" style="fill: rgb(34, 211, 238);"></path>
        <path d="M162.5,68 C152.282733,68 144,76.2831921 144,86.5 C144,96.7175997 152.282733,105 162.5,105 C172.71808,105 181,96.7175997 181,86.5 C181,76.2831921 172.71808,68 162.5,68 Z" id="Fill-1-Copy" fill="#22d3ee" class="theme-fill-shade-5" style="fill: rgb(34, 211, 238);"></path>
        <path d="M148.320315,111 C138.441309,111 129,119.116057 129,129.034008 L129,131 L195,131 L195,129.034008 C195,119.116057 185.558691,111 175.679685,111 L148.320315,111 Z" id="Fill-4-Copy-4" fill="#22d3ee" class="theme-fill-shade-5" style="fill: rgb(34, 211, 238);"></path>
        <path d="M101,42 C82.2223199,42 67,57.2231638 67,76 C67,94.7782914 82.2223199,110 101,110 C119.779174,110 135,94.7782914 135,76 C135,57.2231638 119.779174,42 101,42 Z" id="Fill-1" fill="#2a2b30" class="theme-fill-shade-1" style="fill: rgb(42, 43, 48);"></path>
        <path d="M76.1278461,121 C58.1660158,121 41,136.014705 41,154.362916 L41,158 L161,158 L161,154.362916 C161,136.014705 143.833984,121 125.872154,121 L76.1278461,121 Z" id="Fill-4" fill="#2a2b30" class="theme-fill-shade-1" style="fill: rgb(42, 43, 48);"></path>
        <path d="M127.967515,157.832223 C127.641524,155.258847 126.970359,152.759711 125.961693,150.371603 C124.609236,147.169702 122.708702,144.30003 120.312798,141.842298 C115.382806,136.785082 108.868522,134 101.96988,134 C97.7375959,134 93.5304072,135.083058 89.8030535,137.13208 C87.6945219,138.291157 85.7377587,139.759124 84,141.472422 L89.2353526,150.019331 C90.6212071,148.333394 92.3097181,146.921271 94.1846533,145.890563 C96.5996781,144.562899 99.2190526,143.889737 101.96988,143.889737 C106.387016,143.889737 110.557914,145.672857 113.714233,148.910691 C116.112716,151.37106 117.722355,154.462064 118.399873,157.832091 L112.092958,157.832091 L123.546542,176 L135,157.832223 L127.967515,157.832223 Z" id="Fill-1" fill="#6366f1" class="theme-fill-shade-2" style="fill: rgb(99, 102, 241);"></path>
        <path d="M118.530489,181.557613 L113.838516,173.68363 C112.446549,175.460451 110.726326,176.950567 108.799084,178.037372 C106.385137,179.398695 103.648581,180.118159 100.885293,180.118159 C96.495157,180.118159 92.3452989,178.348255 89.2002271,175.134417 C86.7827031,172.664154 85.1616912,169.549859 84.4862905,166.153404 L90.8544976,166.153404 L79.4272174,148 L68,166.153272 L74.9435182,166.153272 C75.7064581,172.247338 78.3823952,177.870303 82.6347902,182.215678 C87.5472745,187.235522 94.0287491,190 100.885293,190 C107.701362,190 114.172796,187.211147 119,182.352048 L118.962976,182.33907 C118.962976,182.33907 118.798629,182.042483 118.530489,181.557613" id="Fill-4" fill="#ec4899" class="theme-fill-shade-3" style="fill: rgb(236, 72, 153);"></path>
    </g>
</svg>