<?xml version="1.0" encoding="UTF-8"?>
<svg width="24" height="24" viewBox="0 0 24 24" fill="none" xmlns="http://www.w3.org/2000/svg">
    <path d="M12 24C18.6274 24 24 18.6274 24 12C24 5.37258 18.6274 0 12 0C5.37258 0 0 5.37258 0 12C0 18.6274 5.37258 24 12 24Z" fill="white"/>
    <path fill-rule="evenodd" clip-rule="evenodd" d="M21.9793 18.7375H2.02073C0.744363 16.8234 0 14.5217 0 12.0455C0 5.39294 5.37257 0 12 0C18.6274 0 24 5.39294 24 12.0455C24 14.5217 23.2556 16.8234 21.9793 18.7375Z" fill="#3157A8"/>
    <path fill-rule="evenodd" clip-rule="evenodd" d="M7.28851 8.37683H9.34651V15.5765H7.28851V8.37683Z" fill="white"/>
    <path fill-rule="evenodd" clip-rule="evenodd" d="M8.26511 7.47633H8.25023C7.50523 7.47633 7.02222 6.92597 7.02222 6.22901C7.02222 5.51779 7.5195 4.97827 8.27941 4.97827C9.03866 4.97827 9.50553 5.51642 9.52041 6.22696C9.52041 6.92392 9.03866 7.47633 8.26511 7.47633Z" fill="white"/>
    <path fill-rule="evenodd" clip-rule="evenodd" d="M17.5812 15.5771H15.2475V11.8507C15.2475 10.8755 14.8825 10.2104 14.0798 10.2104C13.4657 10.2104 13.1243 10.659 12.9654 11.0926C12.9058 11.2474 12.9151 11.4638 12.9151 11.681V15.5771H10.6031C10.6031 15.5771 10.6329 8.97665 10.6031 8.37672H12.9151V9.50667C13.0517 9.01262 13.7905 8.3075 14.9694 8.3075C16.432 8.3075 17.5812 9.34378 17.5812 11.5731V15.5771Z" fill="white"/>
    <path fill-rule="evenodd" clip-rule="evenodd" d="M9.96926 23.2919C9.94745 23.2307 9.93055 23.1557 9.91855 23.067C9.90659 22.9784 9.89839 22.8881 9.89404 22.7961C9.83513 22.8727 9.76536 22.945 9.68465 23.0128C9.60398 23.0807 9.51347 23.1398 9.41315 23.1902C9.31283 23.2405 9.20267 23.281 9.08273 23.3117C8.96277 23.3423 8.833 23.3576 8.69342 23.3576C8.52113 23.3576 8.36465 23.3325 8.22398 23.2821C8.0833 23.2317 7.96337 23.1611 7.86412 23.0703C7.76489 22.9795 7.68802 22.8727 7.63351 22.7501C7.57896 22.6275 7.5517 22.494 7.5517 22.3495C7.5517 22.1766 7.5888 22.0206 7.66293 21.8816C7.73709 21.7425 7.84396 21.6243 7.98353 21.5269C8.12311 21.4295 8.29269 21.3551 8.49223 21.3036C8.69181 21.2522 8.91586 21.2264 9.16451 21.2264H9.89075V20.8226C9.89075 20.5686 9.81278 20.3689 9.65685 20.2232C9.50092 20.0777 9.27357 20.0049 8.97477 20.0049C8.83738 20.0049 8.71087 20.0235 8.59529 20.0607C8.47968 20.0979 8.37991 20.1494 8.29594 20.215C8.21198 20.2807 8.14656 20.3568 8.09966 20.4433C8.05279 20.5298 8.02934 20.6222 8.02934 20.7208L7.63677 20.7175C7.63677 20.5839 7.66948 20.4548 7.73489 20.33C7.80034 20.2052 7.89247 20.0941 8.01134 19.9967C8.13021 19.8992 8.27304 19.821 8.43991 19.7619C8.60674 19.7028 8.79158 19.6732 8.99441 19.6732C9.18196 19.6732 9.35479 19.6973 9.51292 19.7455C9.67104 19.7936 9.80678 19.8659 9.9202 19.9622C10.0336 20.0585 10.1219 20.1789 10.1852 20.3234C10.2484 20.4679 10.2801 20.6365 10.2801 20.8291V22.5498C10.2801 22.6111 10.2822 22.6746 10.2866 22.7403C10.291 22.8059 10.2981 22.8694 10.3079 22.9307C10.3177 22.9921 10.3291 23.0506 10.3422 23.1064C10.3553 23.1622 10.3706 23.211 10.388 23.2526V23.2919H9.96926ZM8.73923 23.0096C8.881 23.0096 9.01238 22.9915 9.13344 22.9554C9.25447 22.9193 9.36405 22.8694 9.46221 22.8059C9.56033 22.7425 9.6454 22.6686 9.71736 22.5843C9.78936 22.5 9.84713 22.4086 9.89075 22.3101V21.5286H9.22012C9.01948 21.5286 8.84009 21.5466 8.68197 21.5827C8.52384 21.6189 8.39026 21.6709 8.28124 21.7387C8.17217 21.8066 8.08876 21.8893 8.03098 21.9867C7.97318 22.0841 7.94428 22.1941 7.94428 22.3167C7.94428 22.413 7.96282 22.5033 7.99989 22.5876C8.03695 22.6719 8.08985 22.7452 8.15856 22.8076C8.22724 22.87 8.31069 22.9193 8.40881 22.9554C8.50697 22.9915 8.6171 23.0096 8.73923 23.0096ZM10.7871 21.4826C10.7871 21.2068 10.8188 20.9577 10.882 20.7355C10.9453 20.5133 11.0358 20.3234 11.1536 20.1658C11.2713 20.0082 11.4147 19.8867 11.5837 19.8013C11.7528 19.7159 11.9431 19.6732 12.1546 19.6732C12.4054 19.6732 12.6208 19.7236 12.8007 19.8243C12.9806 19.925 13.1295 20.064 13.2473 20.2413V18.248H13.6365V23.2919H13.2702L13.2538 22.8191C13.136 22.9877 12.9861 23.1196 12.804 23.2148C12.6218 23.31 12.4032 23.3576 12.1481 23.3576C11.9387 23.3576 11.75 23.3133 11.5821 23.2246C11.4142 23.136 11.2713 23.0123 11.1536 22.8536C11.0358 22.6949 10.9453 22.505 10.882 22.2838C10.8188 22.0627 10.7871 21.8186 10.7871 21.5515V21.4826ZM11.183 21.5515C11.183 21.7595 11.2037 21.9527 11.2451 22.1311C11.2866 22.3096 11.3498 22.4645 11.4349 22.5958C11.5199 22.7272 11.6274 22.8301 11.7571 22.9045C11.8869 22.9789 12.0412 23.0161 12.22 23.0161C12.353 23.0161 12.4736 23.0002 12.5815 22.9685C12.6895 22.9368 12.7854 22.8925 12.8694 22.8355C12.9534 22.7786 13.0264 22.7107 13.0886 22.6319C13.1507 22.5531 13.2036 22.4677 13.2473 22.3758V20.7076C13.208 20.6179 13.16 20.5314 13.1033 20.4482C13.0466 20.365 12.9768 20.2911 12.8939 20.2265C12.811 20.162 12.7151 20.1105 12.606 20.0722C12.497 20.0339 12.3705 20.0148 12.2266 20.0148C12.0455 20.0148 11.8896 20.0525 11.7587 20.128C11.6279 20.2036 11.5199 20.307 11.4349 20.4384C11.3498 20.5697 11.2866 20.7251 11.2451 20.9046C11.2037 21.0842 11.183 21.2768 11.183 21.4826V21.5515ZM16.4074 22.3889C16.4074 22.3167 16.3949 22.2444 16.3698 22.1722C16.3447 22.0999 16.2979 22.0315 16.2291 21.9669C16.1604 21.9024 16.0645 21.8422 15.9413 21.7863C15.818 21.7305 15.6583 21.6818 15.462 21.6402C15.2657 21.5986 15.0907 21.5504 14.937 21.4957C14.7832 21.441 14.6534 21.3748 14.5476 21.2971C14.4419 21.2193 14.3617 21.1268 14.3072 21.0196C14.2527 20.9123 14.2254 20.7864 14.2254 20.6419C14.2254 20.5106 14.2543 20.3858 14.3121 20.2676C14.3699 20.1494 14.4528 20.0465 14.5607 19.9589C14.6687 19.8713 14.7995 19.8018 14.9533 19.7504C15.107 19.6989 15.2799 19.6732 15.4718 19.6732C15.6768 19.6732 15.8606 19.7 16.0231 19.7537C16.1855 19.8073 16.3229 19.8818 16.4352 19.977C16.5476 20.0722 16.6332 20.1844 16.692 20.3136C16.7509 20.4427 16.7804 20.5828 16.7804 20.7339H16.3878C16.3878 20.6419 16.3676 20.5522 16.3273 20.4646C16.2869 20.377 16.2281 20.2999 16.1506 20.2331C16.0732 20.1663 15.9773 20.1122 15.8627 20.0706C15.7483 20.029 15.6179 20.0082 15.4718 20.0082C15.3191 20.0082 15.1889 20.0268 15.0809 20.064C14.9729 20.1012 14.8846 20.1494 14.8159 20.2085C14.7472 20.2676 14.697 20.3338 14.6654 20.4072C14.6338 20.4805 14.618 20.5544 14.618 20.6288C14.618 20.7076 14.63 20.7793 14.654 20.8439C14.678 20.9085 14.7243 20.9687 14.793 21.0245C14.8617 21.0803 14.9577 21.1318 15.0809 21.1789C15.2041 21.2259 15.3649 21.2724 15.5634 21.3184C15.7772 21.3688 15.9614 21.4246 16.1163 21.4859C16.2711 21.5472 16.3992 21.62 16.5007 21.7042C16.6021 21.7885 16.6773 21.8849 16.7264 21.9932C16.7755 22.1016 16.8 22.2269 16.8 22.3692C16.8 22.5159 16.7695 22.65 16.7084 22.7715C16.6473 22.893 16.5601 22.997 16.4467 23.0835C16.3333 23.1699 16.1959 23.2372 16.0345 23.2854C15.8731 23.3336 15.6932 23.3576 15.4947 23.3576C15.2701 23.3576 15.0716 23.3286 14.8993 23.2706C14.727 23.2126 14.582 23.1343 14.4642 23.0358C14.3465 22.9373 14.2576 22.824 14.1976 22.696C14.1376 22.5679 14.1077 22.4349 14.1077 22.297H14.5002C14.5089 22.4371 14.5449 22.5536 14.6082 22.6467C14.6714 22.7397 14.7499 22.8142 14.8437 22.87C14.9375 22.9258 15.0416 22.9658 15.1561 22.9899C15.2706 23.0139 15.3835 23.026 15.4947 23.026C15.643 23.026 15.7739 23.0085 15.8873 22.9734C16.0007 22.9384 16.0961 22.8914 16.1735 22.8322C16.251 22.7731 16.3093 22.7053 16.3485 22.6286C16.3878 22.552 16.4074 22.4721 16.4074 22.3889Z" fill="#3157A8" stroke="#3157A8" stroke-width="0.1"/>
</svg>