<?xml version="1.0" encoding="UTF-8"?>
<svg width="24" height="25" viewBox="0 0 24 25" fill="none" xmlns="http://www.w3.org/2000/svg">
    <path fill-rule="evenodd" clip-rule="evenodd" d="M12 24.6408C18.6274 24.6408 24 19.2682 24 12.6408C24 6.01335 18.6274 0.640778 12 0.640778C5.37257 0.640778 0 6.01335 0 12.6408C0 19.2682 5.37257 24.6408 12 24.6408Z" fill="#FFFC00"/>
    <path d="M12.1112 21.6408C12.0656 21.6408 12.0212 21.6393 11.9764 21.6371C11.9478 21.6397 11.9181 21.6408 11.8885 21.6408C10.8442 21.6408 10.1741 21.1378 9.52579 20.6509C9.07831 20.315 8.65588 19.9979 8.15829 19.9099C7.91549 19.8671 7.67375 19.8458 7.44048 19.8458C7.01947 19.8458 6.68773 19.9147 6.44529 19.965C6.29813 19.9957 6.17108 20.0219 6.07439 20.0219C5.97346 20.0219 5.86441 19.9987 5.81677 19.8263C5.77548 19.6767 5.74583 19.5324 5.71689 19.3922C5.64279 19.0324 5.5902 18.8109 5.44833 18.7876C3.79215 18.5159 3.31785 18.1452 3.21233 17.8824C3.19751 17.8449 3.18869 17.8071 3.18692 17.77C3.18163 17.6688 3.24868 17.5796 3.34291 17.5634C5.88876 17.1181 7.03041 14.3542 7.07805 14.2369C7.07911 14.2339 7.08052 14.2305 7.08193 14.2275C7.23791 13.892 7.26826 13.6008 7.17298 13.362C6.99829 12.925 6.42835 12.7327 6.0511 12.6056C5.95899 12.5745 5.87147 12.5453 5.8023 12.516C5.04955 12.2 4.98709 11.8758 5.01673 11.7105C5.0672 11.4286 5.42151 11.2322 5.70843 11.2322C5.78677 11.2322 5.85594 11.2472 5.91417 11.2761C6.25296 11.4444 6.55787 11.5299 6.82149 11.5299C7.18533 11.5299 7.34414 11.3676 7.36355 11.3462C7.35402 11.1633 7.34273 10.9721 7.33108 10.7746C7.25521 9.49642 7.16098 7.90753 7.54212 7.00082C8.68341 4.28295 11.1036 4.07155 11.8183 4.07155C11.8366 4.07155 12.1316 4.06817 12.1316 4.06817H12.174C12.89 4.06817 15.3159 4.27958 16.4579 6.99932C16.8387 7.9064 16.7445 9.49642 16.6686 10.7738L16.6654 10.8297C16.6548 11.0073 16.6446 11.1801 16.6361 11.3458C16.6545 11.3657 16.8006 11.5149 17.1302 11.5284H17.1305C17.3814 11.5182 17.6694 11.4331 17.9856 11.2761C18.0781 11.23 18.1811 11.2202 18.251 11.2202C18.3583 11.2202 18.4666 11.2424 18.5566 11.2821L18.5623 11.2847C18.8178 11.381 18.9854 11.5711 18.9889 11.7701C18.9925 11.9575 18.8576 12.239 18.1974 12.516C18.1289 12.5449 18.0414 12.5741 17.9486 12.6056C17.571 12.7327 17.0014 12.925 16.8267 13.362C16.7314 13.6008 16.7617 13.8916 16.9177 14.2271C16.9191 14.2305 16.9206 14.2335 16.922 14.2369C16.9693 14.3542 18.1098 17.1174 20.6571 17.5631C20.751 17.5796 20.8184 17.6688 20.8131 17.7696C20.811 17.8075 20.8021 17.8457 20.787 17.8828C20.6818 18.1437 20.2082 18.514 18.5517 18.7858C18.4162 18.8079 18.3636 18.9953 18.2828 19.3881C18.2535 19.5309 18.2238 19.6715 18.1829 19.8191C18.1476 19.9473 18.0724 20.0073 17.9457 20.0073H17.9253C17.8374 20.0073 17.7128 19.9904 17.5547 19.9575C17.2742 19.8994 16.9597 19.8458 16.5595 19.8458C16.3259 19.8458 16.0842 19.8671 15.841 19.9099C15.3441 19.9979 14.9221 20.3143 14.4753 20.6498C13.8259 21.1378 13.1558 21.6408 12.1112 21.6408Z" fill="white"/>
    <path d="M12.174 4.03765C12.8519 4.03765 15.1871 4.23139 16.2874 6.85636C16.6499 7.72034 16.5571 9.28608 16.4826 10.5439C16.4706 10.7437 16.4593 10.9371 16.4501 11.1218L16.4459 11.201L16.496 11.2603C16.5158 11.284 16.7042 11.4935 17.1231 11.5108L17.1302 11.5112L17.1369 11.5108C17.4139 11.4995 17.7259 11.4083 18.065 11.2393C18.1144 11.2145 18.1811 11.2025 18.2513 11.2025C18.3315 11.2025 18.4165 11.2183 18.4867 11.2498L18.4973 11.2543C18.6748 11.3204 18.8005 11.4455 18.8026 11.5585C18.8036 11.6227 18.7585 11.8525 18.1289 12.1172C18.0671 12.1431 17.986 12.1705 17.8921 12.202C17.4824 12.3406 16.8634 12.5494 16.6548 13.0713C16.5376 13.366 16.5694 13.7133 16.7504 14.1038C16.8249 14.2882 17.9941 17.0919 20.6267 17.5534C20.626 17.5665 20.6229 17.5811 20.6158 17.5984C20.5713 17.7103 20.2876 18.0963 18.5231 18.3858C18.2468 18.4312 18.1794 18.7605 18.1007 19.1435C18.0728 19.2802 18.0435 19.4184 18.004 19.5614C17.992 19.6046 17.9898 19.6072 17.9461 19.6072H17.9253C17.8473 19.6072 17.728 19.5899 17.5904 19.5614C17.3401 19.5092 16.9975 19.4454 16.5595 19.4454C16.3153 19.4454 16.0633 19.4683 15.8107 19.5126C15.2707 19.6083 14.8314 19.9388 14.3662 20.2883C13.7419 20.7584 13.0961 21.2439 12.1112 21.2439C12.0685 21.2439 12.0265 21.2424 11.9841 21.2402L11.9732 21.2398L11.9619 21.2405C11.9379 21.2428 11.9135 21.2439 11.8885 21.2439C10.9035 21.2439 10.2577 20.7584 9.63342 20.2887C9.16829 19.9388 8.72893 19.6083 8.18934 19.5126C7.93666 19.4683 7.68468 19.4454 7.44047 19.4454C7.00252 19.4454 6.65985 19.5164 6.40929 19.5685C6.27166 19.5975 6.15273 19.6219 6.07438 19.6219C6.01086 19.6219 6.00945 19.6181 5.99604 19.5689C5.95651 19.4259 5.92722 19.2839 5.89934 19.1473C5.82064 18.7643 5.75253 18.4331 5.47691 18.3877C3.71204 18.0978 3.42866 17.7111 3.38384 17.5995C3.37678 17.5823 3.37396 17.5669 3.37325 17.5537C6.00557 17.0923 7.17509 14.2889 7.24955 14.1038C7.43024 13.7133 7.46235 13.3664 7.34484 13.0716C7.13662 12.5494 6.51763 12.3406 6.10755 12.202C6.01368 12.1705 5.93251 12.1431 5.87111 12.1172C5.33893 11.8934 5.17553 11.6685 5.20024 11.5318C5.22812 11.3745 5.48468 11.2145 5.70842 11.2145C5.75853 11.2145 5.80265 11.2228 5.83511 11.2393C6.1986 11.4203 6.53069 11.5123 6.82148 11.5123C7.27884 11.5123 7.48282 11.2859 7.50435 11.26L7.55411 11.201L7.54987 11.1222C7.5407 10.9374 7.52905 10.7444 7.51741 10.5451C7.44295 9.28683 7.35013 7.72221 7.71256 6.85786C8.80868 4.24266 11.1322 4.04103 11.8183 4.04103C11.8352 4.04103 12.1334 4.03802 12.1334 4.03802C12.1461 4.03765 12.1595 4.03765 12.174 4.03765ZM12.174 3.64077H12.1733H12.1292C12.1292 3.64077 11.8408 3.64377 11.8179 3.64377C11.0754 3.64377 8.55883 3.86417 7.37166 6.69603C6.97217 7.64899 7.06781 9.2673 7.14474 10.5676C7.15392 10.7208 7.16344 10.88 7.17156 11.0339C7.11016 11.07 6.99793 11.115 6.82148 11.115C6.58574 11.115 6.3073 11.0362 5.99357 10.8796C5.91028 10.8383 5.81429 10.8173 5.70842 10.8173C5.34105 10.8173 4.90168 11.0745 4.83357 11.4575C4.78416 11.7334 4.90027 12.136 5.73383 12.4863C5.809 12.5182 5.89934 12.5486 5.99498 12.5805C6.33941 12.6969 6.85995 12.8726 7.00146 13.2267C7.07451 13.4103 7.04522 13.6465 6.91465 13.9281C6.91182 13.9345 6.909 13.9409 6.90653 13.9476C6.86065 14.061 5.75888 16.7333 3.31255 17.1617C3.12445 17.1948 2.99 17.3735 3.00058 17.5759C3.00376 17.6363 3.01717 17.696 3.04011 17.7542C3.22397 18.2108 3.99824 18.5457 5.40845 18.7785C5.45574 18.8461 5.50479 19.0857 5.53479 19.2317C5.56408 19.3759 5.59443 19.5242 5.63784 19.6812C5.68019 19.8351 5.79065 20.0191 6.07438 20.0191C6.18908 20.0191 6.32459 19.991 6.48093 19.9583C6.71596 19.9095 7.03781 19.8426 7.44047 19.8426C7.66386 19.8426 7.89537 19.8633 8.12829 19.9042C8.58318 19.9849 8.96996 20.2759 9.41744 20.6124C10.0587 21.0949 10.7849 21.6408 11.8885 21.6408C11.9188 21.6408 11.9492 21.6401 11.9795 21.6374C12.0152 21.6393 12.0618 21.6408 12.1112 21.6408C13.215 21.6408 13.9413 21.0949 14.5818 20.6127C15.0304 20.2756 15.4168 19.9849 15.8717 19.9042C16.1046 19.8633 16.3361 19.8426 16.5595 19.8426C16.9438 19.8426 17.2477 19.8945 17.5187 19.9508C17.6888 19.9865 17.8254 20.0045 17.9253 20.0045H17.9359H17.9461C18.1557 20.0045 18.3036 19.8866 18.3622 19.6729C18.4049 19.5194 18.4352 19.3748 18.4652 19.2284C18.4952 19.0827 18.5439 18.8442 18.5908 18.7767C20.0014 18.5439 20.7757 18.2097 20.9592 17.755C20.9825 17.6968 20.9962 17.6363 20.9994 17.5755C21.01 17.3727 20.8755 17.1948 20.6874 17.1617C18.2401 16.7326 17.139 14.0607 17.0935 13.9473C17.091 13.9409 17.0882 13.9345 17.085 13.9281C16.9544 13.6461 16.9255 13.4103 16.9985 13.2267C17.1397 12.8726 17.6602 12.6969 18.0047 12.5809C18.101 12.5482 18.1914 12.5174 18.2658 12.4863C18.876 12.2298 19.182 11.9152 19.1756 11.5506C19.1703 11.2641 18.9607 11.0088 18.6275 10.8822L18.6265 10.8819C18.5146 10.8323 18.3816 10.8053 18.2513 10.8053C18.1621 10.8053 18.0301 10.818 17.9066 10.8796C17.6165 11.0242 17.3557 11.103 17.1309 11.1135C16.9816 11.1064 16.8842 11.0662 16.8284 11.0336C16.8355 10.9018 16.8436 10.7658 16.8517 10.6239L16.8549 10.5687C16.9322 9.26768 17.0278 7.64787 16.6283 6.69453C15.4405 3.86117 12.9186 3.64077 12.174 3.64077Z" fill="#030303"/>
</svg>