<?xml version="1.0" encoding="UTF-8"?>
<svg width="24" height="24" viewBox="0 0 24 24" fill="none" xmlns="http://www.w3.org/2000/svg">
    <path d="M12 24C18.6274 24 24 18.6274 24 12C24 5.37258 18.6274 0 12 0C5.37258 0 0 5.37258 0 12C0 18.6274 5.37258 24 12 24Z" fill="white"/>
    <path fill-rule="evenodd" clip-rule="evenodd" d="M21.9793 18.7375H2.02073C0.744363 16.8234 0 14.5217 0 12.0455C0 5.39294 5.37257 0 12 0C18.6274 0 24 5.39294 24 12.0455C24 14.5217 23.2556 16.8234 21.9793 18.7375Z" fill="black"/>
    <path d="M14.8934 8.05375C15.7689 8.6996 16.8415 9.0796 18 9.0796V6.77926C17.7807 6.7793 17.5621 6.75571 17.3476 6.70882V8.51952C16.1892 8.51952 15.1167 8.13951 14.241 7.49371V12.1881C14.241 14.5364 12.3961 16.44 10.1205 16.44C9.27145 16.44 8.48226 16.1751 7.82669 15.7208C8.57492 16.5103 9.61838 17 10.7728 17C13.0485 17 14.8935 15.0964 14.8935 12.748V8.05375H14.8934V8.05375ZM15.6982 5.73298C15.2507 5.22854 14.9569 4.57664 14.8934 3.85593V3.56006H14.2751C14.4307 4.47607 14.9615 5.25866 15.6982 5.73298ZM9.266 13.9188C9.016 13.5805 8.8809 13.1667 8.88151 12.7413C8.88151 11.6672 9.72533 10.7964 10.7664 10.7964C10.9604 10.7963 11.1532 10.827 11.3381 10.8875V8.53576C11.1221 8.5052 10.904 8.49223 10.686 8.49698V10.3275C10.501 10.2669 10.308 10.2362 10.114 10.2364C9.07292 10.2364 8.22915 11.1071 8.22915 12.1813C8.22915 12.9409 8.65092 13.5984 9.266 13.9188Z" fill="#FF004F"/>
    <path d="M14.2411 7.49367C15.1169 8.13947 16.1894 8.51947 17.3477 8.51947V6.70877C16.7012 6.56665 16.1287 6.21797 15.6984 5.73298C14.9617 5.25862 14.4309 4.47603 14.2753 3.56006H12.6513V12.7479C12.6476 13.819 11.8053 14.6863 10.7665 14.6863C10.1543 14.6863 9.61047 14.3852 9.26604 13.9188C8.651 13.5984 8.22923 12.9408 8.22923 12.1814C8.22923 11.1073 9.07301 10.2364 10.114 10.2364C10.3135 10.2364 10.5058 10.2685 10.6861 10.3275V8.49703C8.45047 8.54469 6.6525 10.4297 6.6525 12.7479C6.6525 13.9052 7.10023 14.9543 7.82692 15.7209C8.48249 16.1751 9.27167 16.44 10.1208 16.44C12.3964 16.44 14.2412 14.5363 14.2412 12.1881V7.49367H14.2411Z" fill="white"/>
    <path d="M17.3476 6.7087V6.2191C16.7646 6.22001 16.193 6.05151 15.6983 5.73287C16.1362 6.22761 16.7128 6.56874 17.3476 6.7087ZM14.2752 3.55999C14.2603 3.47245 14.2489 3.38433 14.241 3.29587V3H11.9988V12.1879C11.9952 13.2589 11.1528 14.1262 10.1139 14.1262C9.80894 14.1262 9.52096 14.0515 9.26594 13.9187C9.61036 14.3851 10.1542 14.6862 10.7664 14.6862C11.8051 14.6862 12.6476 13.819 12.6512 12.7479V3.55999H14.2752ZM10.6861 8.49696V7.97575C10.4987 7.94932 10.3098 7.93606 10.1207 7.93616C7.84487 7.93611 6.00003 9.83978 6.00003 12.1879C6.00003 13.6601 6.72508 14.9575 7.82686 15.7207C7.10018 14.9542 6.65244 13.905 6.65244 12.7478C6.65244 10.4296 8.45037 8.54462 10.6861 8.49696Z" fill="#00F2EA"/>
    <path fill-rule="evenodd" clip-rule="evenodd" d="M9.96925 23.2919C9.94745 23.2307 9.93054 23.1557 9.91854 23.067C9.90658 22.9784 9.89838 22.8881 9.89403 22.7961C9.83513 22.8727 9.76536 22.945 9.68465 23.0128C9.60397 23.0807 9.51346 23.1398 9.41314 23.1902C9.31282 23.2405 9.20266 23.281 9.08273 23.3117C8.96276 23.3423 8.83299 23.3576 8.69341 23.3576C8.52113 23.3576 8.36465 23.3325 8.22397 23.2821C8.0833 23.2317 7.96337 23.1611 7.86411 23.0703C7.76489 22.9795 7.68802 22.8727 7.6335 22.7501C7.57895 22.6275 7.5517 22.494 7.5517 22.3495C7.5517 22.1766 7.58879 22.0206 7.66292 21.8816C7.73708 21.7425 7.84395 21.6243 7.98353 21.5269C8.1231 21.4295 8.29268 21.3551 8.49222 21.3036C8.6918 21.2522 8.91586 21.2264 9.1645 21.2264H9.89074V20.8226C9.89074 20.5686 9.81277 20.3689 9.65684 20.2232C9.50091 20.0777 9.27356 20.0049 8.97476 20.0049C8.83738 20.0049 8.71086 20.0235 8.59529 20.0607C8.47967 20.0979 8.3799 20.1494 8.29594 20.215C8.21197 20.2807 8.14655 20.3568 8.09965 20.4433C8.05278 20.5298 8.02933 20.6222 8.02933 20.7208L7.63676 20.7175C7.63676 20.5839 7.66947 20.4548 7.73489 20.33C7.80034 20.2052 7.89246 20.0941 8.01133 19.9967C8.1302 19.8992 8.27303 19.821 8.4399 19.7619C8.60674 19.7028 8.79157 19.6732 8.99441 19.6732C9.18195 19.6732 9.35478 19.6973 9.51291 19.7455C9.67104 19.7936 9.80677 19.8659 9.92019 19.9622C10.0336 20.0585 10.1219 20.1789 10.1852 20.3234C10.2484 20.4679 10.2801 20.6365 10.2801 20.8291V22.5498C10.2801 22.6111 10.2822 22.6746 10.2866 22.7403C10.291 22.8059 10.2981 22.8694 10.3079 22.9308C10.3177 22.9921 10.3291 23.0506 10.3422 23.1064C10.3553 23.1622 10.3706 23.211 10.388 23.2526V23.2919H9.96925ZM8.73922 23.0096C8.88099 23.0096 9.01237 22.9915 9.13343 22.9554C9.25446 22.9193 9.36404 22.8694 9.4622 22.8059C9.56033 22.7425 9.64539 22.6686 9.71736 22.5843C9.78936 22.5 9.84713 22.4086 9.89074 22.3101V21.5286H9.22011C9.01947 21.5286 8.84009 21.5466 8.68196 21.5827C8.52383 21.6189 8.39026 21.6709 8.28123 21.7387C8.17217 21.8066 8.08875 21.8893 8.03098 21.9867C7.97317 22.0841 7.94427 22.1941 7.94427 22.3167C7.94427 22.413 7.96282 22.5033 7.99988 22.5876C8.03694 22.6719 8.08985 22.7452 8.15855 22.8076C8.22723 22.87 8.31068 22.9193 8.40881 22.9554C8.50697 22.9915 8.61709 23.0096 8.73922 23.0096ZM10.7871 21.4826C10.7871 21.2068 10.8188 20.9577 10.882 20.7355C10.9453 20.5133 11.0358 20.3234 11.1536 20.1658C11.2713 20.0082 11.4147 19.8867 11.5837 19.8013C11.7528 19.7159 11.943 19.6732 12.1546 19.6732C12.4054 19.6732 12.6208 19.7236 12.8007 19.8243C12.9806 19.925 13.1295 20.064 13.2472 20.2413V18.248H13.6365V23.2919H13.2701L13.2538 22.8191C13.136 22.9877 12.9861 23.1196 12.804 23.2148C12.6218 23.31 12.4032 23.3576 12.148 23.3576C11.9387 23.3576 11.75 23.3133 11.5821 23.2246C11.4142 23.136 11.2713 23.0123 11.1536 22.8536C11.0358 22.6949 10.9453 22.505 10.882 22.2838C10.8188 22.0627 10.7871 21.8186 10.7871 21.5515V21.4826ZM11.183 21.5515C11.183 21.7595 11.2037 21.9527 11.2451 22.1311C11.2866 22.3096 11.3498 22.4645 11.4349 22.5958C11.5199 22.7272 11.6273 22.8301 11.7571 22.9045C11.8869 22.9789 12.0412 23.0161 12.22 23.0161C12.353 23.0161 12.4736 23.0002 12.5815 22.9685C12.6894 22.9368 12.7854 22.8925 12.8694 22.8355C12.9533 22.7786 13.0264 22.7107 13.0886 22.6319C13.1507 22.5531 13.2036 22.4677 13.2472 22.3758V20.7076C13.208 20.6179 13.16 20.5314 13.1033 20.4482C13.0466 20.365 12.9768 20.2911 12.8939 20.2265C12.811 20.162 12.7151 20.1105 12.606 20.0722C12.497 20.0339 12.3705 20.0148 12.2266 20.0148C12.0455 20.0148 11.8896 20.0525 11.7587 20.128C11.6279 20.2036 11.5199 20.307 11.4349 20.4384C11.3498 20.5697 11.2866 20.7251 11.2451 20.9046C11.2037 21.0842 11.183 21.2768 11.183 21.4826V21.5515ZM16.4074 22.3889C16.4074 22.3167 16.3949 22.2444 16.3698 22.1722C16.3447 22.0999 16.2979 22.0315 16.2291 21.9669C16.1604 21.9024 16.0645 21.8422 15.9412 21.7863C15.818 21.7305 15.6583 21.6818 15.462 21.6402C15.2657 21.5986 15.0907 21.5504 14.9369 21.4957C14.7832 21.441 14.6534 21.3748 14.5476 21.2971C14.4419 21.2193 14.3617 21.1268 14.3072 21.0196C14.2527 20.9123 14.2254 20.7864 14.2254 20.6419C14.2254 20.5106 14.2543 20.3858 14.3121 20.2676C14.3699 20.1494 14.4528 20.0465 14.5607 19.9589C14.6687 19.8713 14.7995 19.8018 14.9533 19.7504C15.107 19.6989 15.2799 19.6732 15.4718 19.6732C15.6768 19.6732 15.8606 19.7 16.0231 19.7537C16.1855 19.8073 16.3229 19.8818 16.4352 19.977C16.5476 20.0722 16.6332 20.1844 16.692 20.3136C16.7509 20.4427 16.7804 20.5828 16.7804 20.7339H16.3878C16.3878 20.6419 16.3676 20.5522 16.3273 20.4646C16.2869 20.377 16.228 20.2999 16.1506 20.2331C16.0732 20.1663 15.9772 20.1122 15.8627 20.0706C15.7483 20.029 15.6179 20.0082 15.4718 20.0082C15.3191 20.0082 15.1888 20.0268 15.0809 20.064C14.9729 20.1012 14.8846 20.1494 14.8159 20.2085C14.7472 20.2676 14.697 20.3338 14.6654 20.4072C14.6338 20.4805 14.618 20.5544 14.618 20.6288C14.618 20.7076 14.63 20.7793 14.654 20.8439C14.678 20.9085 14.7243 20.9687 14.793 21.0245C14.8617 21.0803 14.9577 21.1318 15.0809 21.1789C15.2041 21.2259 15.3649 21.2724 15.5634 21.3184C15.7772 21.3688 15.9614 21.4246 16.1163 21.4859C16.2711 21.5472 16.3992 21.62 16.5007 21.7042C16.6021 21.7885 16.6773 21.8849 16.7264 21.9932C16.7755 22.1016 16.8 22.2269 16.8 22.3692C16.8 22.5159 16.7695 22.65 16.7084 22.7715C16.6473 22.893 16.5601 22.997 16.4467 23.0835C16.3333 23.1699 16.1959 23.2372 16.0345 23.2854C15.8731 23.3336 15.6932 23.3576 15.4947 23.3576C15.2701 23.3576 15.0716 23.3286 14.8993 23.2706C14.727 23.2126 14.582 23.1343 14.4642 23.0358C14.3464 22.9373 14.2576 22.824 14.1976 22.696C14.1376 22.5679 14.1076 22.4349 14.1076 22.297H14.5002C14.5089 22.4371 14.5449 22.5536 14.6081 22.6467C14.6714 22.7397 14.7499 22.8142 14.8437 22.87C14.9375 22.9258 15.0416 22.9658 15.1561 22.9899C15.2706 23.0139 15.3835 23.026 15.4947 23.026C15.643 23.026 15.7739 23.0085 15.8873 22.9734C16.0007 22.9384 16.0961 22.8914 16.1735 22.8322C16.2509 22.7731 16.3093 22.7053 16.3485 22.6286C16.3878 22.552 16.4074 22.4721 16.4074 22.3889Z" fill="black" stroke="black" stroke-width="0.1"/>
</svg>
